<svg width="65" height="63" viewBox="0 0 65 63" fill="none" xmlns="http://www.w3.org/2000/svg">
<circle cx="24.644" cy="24.7604" r="24.5" fill="white"/>
<mask id="mask0_72_611" style="mask-type:alpha" maskUnits="userSpaceOnUse" x="15" y="13" width="50" height="50">
<rect x="15.144" y="13.2604" width="49" height="49" fill="#D9D9D9"/>
</mask>
<g mask="url(#mask0_72_611)">
<path d="M41.1751 31.125V33.677C41.1751 34.1109 41.322 34.4745 41.6156 34.7678C41.9093 35.0615 42.273 35.2083 42.7069 35.2083C43.1411 35.2083 43.5047 35.0615 43.7977 34.7678C44.091 34.4745 44.2376 34.1109 44.2376 33.677V31.125H46.7897C47.2236 31.125 47.5872 30.9781 47.8805 30.6845C48.1741 30.3908 48.321 30.0271 48.321 29.5932C48.321 29.159 48.1741 28.7954 47.8805 28.5024C47.5872 28.2091 47.2236 28.0625 46.7897 28.0625H44.2376V25.5104C44.2376 25.0765 44.0908 24.7129 43.7971 24.4196C43.5035 24.126 43.1397 23.9791 42.7059 23.9791C42.2717 23.9791 41.9081 24.126 41.6151 24.4196C41.3218 24.7129 41.1751 25.0765 41.1751 25.5104V28.0625H38.623C38.1892 28.0625 37.8256 28.2093 37.5323 28.5029C37.2386 28.7966 37.0918 29.1604 37.0918 29.5942C37.0918 30.0284 37.2386 30.392 37.5323 30.685C37.8256 30.9783 38.1892 31.125 38.623 31.125H41.1751ZM38.623 43.375H46.7897C47.2236 43.375 47.5872 43.2281 47.8805 42.9345C48.1741 42.6408 48.321 42.2771 48.321 41.8432C48.321 41.409 48.1741 41.0454 47.8805 40.7524C47.5872 40.4591 47.2236 40.3125 46.7897 40.3125H38.623C38.1892 40.3125 37.8256 40.4593 37.5323 40.753C37.2386 41.0466 37.0918 41.4104 37.0918 41.8442C37.0918 42.2784 37.2386 42.642 37.5323 42.935C37.8256 43.2283 38.1892 43.375 38.623 43.375ZM32.1055 51.0312C31.0742 51.0312 30.2012 50.6739 29.4866 49.9593C28.772 49.2448 28.4147 48.3718 28.4147 47.3404V20.0137C28.4147 18.9823 28.772 18.1093 29.4866 17.3948C30.2012 16.6802 31.0742 16.3229 32.1055 16.3229H44.7521C45.25 16.3229 45.7245 16.4185 46.1757 16.6097C46.6269 16.8006 47.0201 17.0637 47.3553 17.3988L55.9221 25.9657C56.2573 26.3008 56.5203 26.694 56.7112 27.1452C56.9024 27.5965 56.998 28.071 56.998 28.5688V47.3404C56.998 48.3718 56.6408 49.2448 55.9262 49.9593C55.2116 50.6739 54.3386 51.0312 53.3072 51.0312H32.1055ZM32.1055 47.9687H53.3072C53.4644 47.9687 53.6084 47.9032 53.739 47.7722C53.87 47.6415 53.9355 47.4976 53.9355 47.3404V28.5729L44.748 19.3854H32.1055C31.9483 19.3854 31.8044 19.4509 31.6737 19.5819C31.5427 19.7126 31.4772 19.8565 31.4772 20.0137V47.3404C31.4772 47.4976 31.5427 47.6415 31.6737 47.7722C31.8044 47.9032 31.9483 47.9687 32.1055 47.9687ZM23.9389 59.1979C22.9075 59.1979 22.0345 58.8406 21.3199 58.126C20.6053 57.4114 20.248 56.5384 20.248 55.5071V30.1041C20.248 29.6703 20.3949 29.3067 20.6885 29.0134C20.9822 28.7197 21.346 28.5729 21.7798 28.5729C22.214 28.5729 22.5776 28.7197 22.8706 29.0134C23.1639 29.3067 23.3105 29.6703 23.3105 30.1041V55.5071C23.3105 55.6643 23.3761 55.8082 23.5071 55.9389C23.6377 56.0699 23.7817 56.1354 23.9389 56.1354H43.2168C43.6507 56.1354 44.0142 56.2822 44.3076 56.5759C44.6012 56.8695 44.748 57.2333 44.748 57.6671C44.748 58.1013 44.6012 58.4649 44.3076 58.7579C44.0142 59.0512 43.6507 59.1979 43.2168 59.1979H23.9389Z" fill="#EDA732"/>
</g>
</svg>
