<svg width="67" height="61" viewBox="0 0 67 61" fill="none" xmlns="http://www.w3.org/2000/svg">
<mask id="mask0_247_1114" style="mask-type:alpha" maskUnits="userSpaceOnUse" x="0" y="0" width="67" height="61">
<rect x="0.459534" width="65.5982" height="61" fill="#D9D9D9"/>
</mask>
<g mask="url(#mask0_247_1114)">
<path d="M24.3756 56.9967C22.2801 56.9967 20.4009 56.4884 18.7382 55.4717C17.0755 54.4551 15.7886 53.0572 14.8775 51.278C14.1486 52.1676 13.2261 52.8559 12.1101 53.3431C10.994 53.8303 9.84373 54.0738 8.65931 54.0738C6.33604 54.0738 4.38859 53.3325 2.81697 51.8499C1.24535 50.3672 0.459534 48.5669 0.459534 46.4488C0.459534 44.6273 1.09729 42.9858 2.37282 41.5244C3.64834 40.0629 5.26552 39.2263 7.22435 39.0145C6.58659 38.1672 6.09688 37.2671 5.75522 36.3139C5.41357 35.3608 5.24274 34.3547 5.24274 33.2957C5.24274 32.5756 5.33385 31.8554 5.51606 31.1353C5.69828 30.4151 5.97161 29.7162 6.33604 29.0384C6.70048 28.403 7.23574 27.9688 7.94183 27.7358C8.64792 27.5028 9.34263 27.5558 10.0259 27.8947C10.7093 28.2336 11.1876 28.7313 11.4609 29.3879C11.7342 30.0445 11.6887 30.6905 11.3242 31.3259C11.142 31.6648 11.0054 32.0037 10.9143 32.3426C10.8231 32.6815 10.7776 33.0204 10.7776 33.3592C10.7776 35.5197 11.6773 36.9176 13.4767 37.553C15.2761 38.1884 17.0869 38.6544 18.909 38.9509C19.2735 39.0356 19.6151 39.1627 19.934 39.3322C20.2529 39.5016 20.5034 39.7346 20.6857 40.0311C20.8679 40.3276 20.9704 40.6348 20.9931 40.9525C21.0159 41.2702 20.959 41.5985 20.8223 41.9374C20.3668 43.0811 20.0023 44.0554 19.729 44.8603C19.4557 45.6651 19.319 46.4277 19.319 47.1478C19.319 48.4186 19.8087 49.5306 20.7882 50.4837C21.7676 51.4369 22.9634 51.9134 24.3756 51.9134C25.8333 51.9134 27.086 51.3945 28.1338 50.3566C29.1815 49.3188 30.0585 48.0268 30.7646 46.4806C31.4706 44.9344 32.0401 43.2929 32.4728 41.5561C32.9056 39.8193 33.2587 38.252 33.532 36.854C33.6686 36.1339 34.0559 35.5726 34.6936 35.1702C35.3314 34.7678 36.0147 34.6724 36.7436 34.8842C37.518 35.0961 38.0988 35.5197 38.486 36.1551C38.8732 36.7905 38.9757 37.4683 38.7935 38.1884C38.3835 40.137 37.8596 42.2127 37.2219 44.4155C36.5841 46.6183 35.73 48.6516 34.6594 50.5155C33.5889 52.3794 32.2223 53.9256 30.5596 55.154C28.8968 56.3825 26.8355 56.9967 24.3756 56.9967ZM42.2101 56.9967C41.3901 56.9967 40.7182 56.7532 40.1943 56.266C39.6704 55.7789 39.4085 55.1752 39.4085 54.4551C39.4085 53.7349 39.6704 53.1313 40.1943 52.6441C40.7182 52.157 41.3673 51.9134 42.1417 51.9134C43.5995 51.9134 44.8181 51.4369 45.7975 50.4837C46.7769 49.5306 47.2666 48.3974 47.2666 47.0842C47.2666 46.3641 47.1186 45.5698 46.8225 44.7014C46.5264 43.833 46.1278 42.7846 45.6267 41.5561C45.5355 41.2596 45.49 40.9737 45.49 40.6983C45.49 40.423 45.5811 40.1582 45.7633 39.904C45.9455 39.6499 46.1505 39.4487 46.3783 39.3004C46.6061 39.1521 46.9022 39.0356 47.2666 38.9509C49.1343 38.6544 51.0248 38.199 52.9381 37.5848C54.8514 36.9705 55.808 35.5408 55.808 33.2957C55.808 31.6013 55.1361 30.3728 53.7923 29.6103C52.4484 28.8478 50.9793 28.4665 49.3849 28.4665C47.7905 28.4665 45.9455 28.7207 43.85 29.229C41.7545 29.7374 39.3629 30.394 36.6752 31.1988C35.9008 31.4106 35.1492 31.3789 34.4203 31.1035C33.6914 30.8282 33.2131 30.3304 32.9853 29.6103C32.7576 28.8902 32.8714 28.2124 33.327 27.577C33.7825 26.9415 34.3975 26.5179 35.1719 26.3061C38.0419 25.4589 40.6385 24.7599 42.9617 24.2092C45.285 23.6586 47.4488 23.3832 49.4532 23.3832C52.5965 23.3832 55.3525 24.2516 57.7213 25.9884C60.0902 27.7252 61.2746 30.161 61.2746 33.2957C61.2746 34.3547 61.1037 35.3608 60.7621 36.3139C60.4204 37.2671 59.9307 38.1672 59.293 39.0145C61.2518 39.2263 62.869 40.0629 64.1445 41.5244C65.42 42.9858 66.0578 44.6273 66.0578 46.4488C66.0578 48.5669 65.272 50.3672 63.7003 51.8499C62.1287 53.3325 60.1813 54.0738 57.858 54.0738C56.6736 54.0738 55.5233 53.8303 54.4073 53.3431C53.2912 52.8559 52.3687 52.1676 51.6398 51.278C50.7287 53.0148 49.4532 54.3915 47.8133 55.4082C46.1733 56.4249 44.3056 56.9544 42.2101 56.9967ZM25.6739 36.9176C22.1662 33.9523 19.3646 31.2624 17.2691 28.8478C15.1736 26.4332 14.1258 23.828 14.1258 21.0322C14.1258 18.2787 15.1394 15.9594 17.1666 14.0743C19.1938 12.1893 21.6879 11.2467 24.6489 11.2467C24.8311 11.2467 24.9905 11.2573 25.1272 11.2785C25.2639 11.2997 25.4233 11.3103 25.6055 11.3103C25.4233 10.8867 25.2866 10.4631 25.1955 10.0395C25.1044 9.61584 25.0589 9.17105 25.0589 8.70508C25.0589 6.58702 25.8561 4.78668 27.4505 3.30404C29.0449 1.8214 30.9809 1.08008 33.2587 1.08008C35.5364 1.08008 37.4724 1.8214 39.0668 3.30404C40.6612 4.78668 41.4584 6.58702 41.4584 8.70508C41.4584 9.17105 41.4129 9.60525 41.3218 10.0077C41.2307 10.4101 41.094 10.8231 40.9118 11.2467H41.8684C43.0528 11.2467 44.1803 11.4162 45.2508 11.7551C46.3214 12.094 47.3122 12.5811 48.2233 13.2165C48.861 13.6401 49.2254 14.1908 49.3166 14.8686C49.4077 15.5464 49.2254 16.1818 48.7699 16.7749C48.3144 17.3679 47.7222 17.7068 46.9933 17.7915C46.2644 17.8763 45.5811 17.7068 44.9433 17.2832C44.4878 16.9443 44.0095 16.7007 43.5084 16.5525C43.0073 16.4042 42.4606 16.3301 41.8684 16.3301C40.4107 16.3301 39.2377 16.7113 38.3493 17.4738C37.461 18.2363 36.3336 19.3589 34.9669 20.8415C34.7392 21.0957 34.4886 21.2863 34.2153 21.4134C33.942 21.5405 33.6231 21.604 33.2587 21.604C32.8942 21.604 32.5639 21.5405 32.2678 21.4134C31.9717 21.2863 31.7098 21.0957 31.482 20.8415C30.0699 19.3165 28.9424 18.1834 28.0996 17.4421C27.2569 16.7007 26.1066 16.3301 24.6489 16.3301C23.1911 16.3301 21.984 16.7749 21.0273 17.6645C20.0707 18.554 19.5924 19.6766 19.5924 21.0322C19.5924 22.8113 20.4921 24.6646 22.2914 26.5921C24.0908 28.5195 26.5166 30.7752 29.5688 33.3592C30.2065 33.8676 30.5823 34.4924 30.6962 35.2337C30.8101 35.975 30.5937 36.5999 30.0471 37.1082C29.4549 37.6589 28.7374 37.9025 27.8946 37.8389C27.0519 37.7754 26.3116 37.4683 25.6739 36.9176ZM8.65931 48.9905C9.43374 48.9905 10.0829 48.7469 10.6068 48.2598C11.1306 47.7726 11.3926 47.169 11.3926 46.4488C11.3926 45.7287 11.1306 45.125 10.6068 44.6379C10.0829 44.1507 9.43374 43.9072 8.65931 43.9072C7.88489 43.9072 7.23574 44.1507 6.71187 44.6379C6.18799 45.125 5.92605 45.7287 5.92605 46.4488C5.92605 47.169 6.18799 47.7726 6.71187 48.2598C7.23574 48.7469 7.88489 48.9905 8.65931 48.9905ZM33.2587 11.2467C34.0331 11.2467 34.6822 11.0032 35.2061 10.516C35.73 10.0289 35.9919 9.42522 35.9919 8.70508C35.9919 7.98494 35.73 7.38129 35.2061 6.89414C34.6822 6.40699 34.0331 6.16341 33.2587 6.16341C32.4842 6.16341 31.8351 6.40699 31.3112 6.89414C30.7873 7.38129 30.5254 7.98494 30.5254 8.70508C30.5254 9.42522 30.7873 10.0289 31.3112 10.516C31.8351 11.0032 32.4842 11.2467 33.2587 11.2467ZM57.9263 48.9905C58.7007 48.9905 59.3385 48.7469 59.8396 48.2598C60.3407 47.7726 60.5913 47.169 60.5913 46.4488C60.5913 45.7287 60.3293 45.1145 59.8054 44.6061C59.2816 44.0978 58.6324 43.8436 57.858 43.8436C57.0836 43.8436 56.4344 44.0872 55.9105 44.5744C55.3867 45.0615 55.1247 45.6651 55.1247 46.3853C55.1247 47.1054 55.3981 47.7197 55.9447 48.228C56.4914 48.7363 57.1519 48.9905 57.9263 48.9905Z" fill="#EDA732"/>
</g>
</svg>
