<svg width="67" height="61" viewBox="0 0 67 61" fill="none" xmlns="http://www.w3.org/2000/svg">
<mask id="mask0_247_1123" style="mask-type:alpha" maskUnits="userSpaceOnUse" x="0" y="0" width="67" height="61">
<rect x="0.631958" width="65.5982" height="61" fill="#D9D9D9"/>
</mask>
<g mask="url(#mask0_247_1123)">
<path d="M15.5966 53.3751C14.4577 53.3751 13.4897 53.0045 12.6925 52.2632C11.8953 51.5218 11.4967 50.6217 11.4967 49.5626C11.4967 48.5036 11.8953 47.6034 12.6925 46.8621C13.4897 46.1208 14.4577 45.7501 15.5966 45.7501H19.9698L13 24.5272C11.77 23.8918 10.7564 22.9599 9.95923 21.7314C9.16203 20.5029 8.76343 19.1897 8.76343 17.7918C8.76343 15.6738 9.56063 13.8734 11.155 12.3908C12.7494 10.9081 14.6855 10.1668 16.9632 10.1668C18.7398 10.1668 20.3228 10.6434 21.7122 11.5965C23.1017 12.5496 24.0697 13.7675 24.6163 15.2501H33.3628V12.7085C33.3628 11.9883 33.6247 11.3847 34.1486 10.8975C34.6725 10.4104 35.3216 10.1668 36.096 10.1668C36.506 10.1668 36.9046 10.2515 37.2918 10.421C37.679 10.5904 38.0093 10.8446 38.2826 11.1835L42.9292 7.11681C43.3392 6.73556 43.8289 6.49198 44.3983 6.38608C44.9677 6.28017 45.5258 6.35431 46.0724 6.60847L56.7321 11.1835C57.2788 11.4376 57.6546 11.8083 57.8596 12.2955C58.0646 12.7826 58.0532 13.2592 57.8254 13.7251C57.5521 14.2335 57.1535 14.5618 56.6296 14.71C56.1058 14.8583 55.5933 14.8265 55.0922 14.6147L45.2524 10.421L38.8293 16.0126V19.571L45.2524 25.0356L55.0922 20.8418C55.5933 20.63 56.1172 20.6088 56.6638 20.7783C57.2105 20.9477 57.5977 21.2654 57.8254 21.7314C58.0988 22.2397 58.1215 22.7269 57.8938 23.1928C57.666 23.6588 57.2788 24.0189 56.7321 24.2731L46.0724 28.9751C45.5258 29.2293 44.9677 29.3034 44.3983 29.1975C43.8289 29.0916 43.3392 28.8481 42.9292 28.4668L38.2826 24.4001C38.0093 24.6543 37.679 24.8873 37.2918 25.0991C36.9046 25.3109 36.506 25.4168 36.096 25.4168C35.3216 25.4168 34.6725 25.1732 34.1486 24.6861C33.6247 24.1989 33.3628 23.5953 33.3628 22.8751V20.3335H24.6163C24.4797 20.6724 24.3316 20.9901 24.1722 21.2866C24.0127 21.5831 23.7964 21.9008 23.523 22.2397L37.1893 45.7501H42.9292C44.068 45.7501 45.0361 46.1208 45.8333 46.8621C46.6305 47.6034 47.0291 48.5036 47.0291 49.5626C47.0291 50.6217 46.6305 51.5218 45.8333 52.2632C45.0361 53.0045 44.068 53.3751 42.9292 53.3751H15.5966ZM16.9632 20.3335C17.7376 20.3335 18.3868 20.0899 18.9107 19.6027C19.4345 19.1156 19.6965 18.5119 19.6965 17.7918C19.6965 17.0717 19.4345 16.468 18.9107 15.9809C18.3868 15.4937 17.7376 15.2501 16.9632 15.2501C16.1888 15.2501 15.5396 15.4937 15.0158 15.9809C14.4919 16.468 14.2299 17.0717 14.2299 17.7918C14.2299 18.5119 14.4919 19.1156 15.0158 19.6027C15.5396 20.0899 16.1888 20.3335 16.9632 20.3335ZM25.573 45.7501H30.9028L19.1498 25.4168H18.8765L25.573 45.7501Z" fill="#EDA732"/>
</g>
</svg>
