<svg width="66" height="61" viewBox="0 0 66 61" fill="none" xmlns="http://www.w3.org/2000/svg">
<mask id="mask0_247_1105" style="mask-type:alpha" maskUnits="userSpaceOnUse" x="0" y="0" width="66" height="61">
<rect x="0.287109" width="65.5982" height="61" fill="#D9D9D9"/>
</mask>
<g mask="url(#mask0_247_1105)">
<path d="M45.9326 36.8541L56.3189 28.5937L58.0956 28.7208C58.87 28.8055 59.4736 29.1021 59.9063 29.6104C60.3391 30.1187 60.5555 30.6694 60.5555 31.2625C60.5555 31.6014 60.4872 31.9402 60.3505 32.2791C60.2138 32.618 59.9633 32.9146 59.5989 33.1687L52.4924 38.951L54.6107 47.5291C54.6562 47.6139 54.679 47.7092 54.679 47.8151V48.101C54.679 48.8212 54.4057 49.4248 53.859 49.9119C53.3124 50.3991 52.6746 50.6427 51.9457 50.6427C51.718 50.6427 51.4788 50.6109 51.2282 50.5474C50.9777 50.4838 50.7385 50.3885 50.5108 50.2614L49.0758 49.4354L45.9326 36.8541ZM39.5094 18.3L36.6395 12.0729L37.2545 10.675C37.4822 10.1666 37.8353 9.77479 38.3136 9.49945C38.7919 9.2241 39.2816 9.08643 39.7827 9.08643C40.2838 9.08643 40.7735 9.21351 41.2518 9.46768C41.7302 9.72184 42.0832 10.1031 42.311 10.6114L46.0692 18.8718L39.5094 18.3ZM20.3766 42.7635L28.9863 37.9343L37.5961 42.8271L35.3412 33.6771L42.926 27.5771L32.9496 26.751L28.9863 18.1093L25.0231 26.6875L15.0467 27.5135L22.6315 33.6771L20.3766 42.7635ZM13.5434 47.5291L16.55 35.5198L6.50528 27.45C6.14085 27.1958 5.90169 26.8993 5.7878 26.5604C5.67392 26.2215 5.61697 25.8826 5.61697 25.5437C5.61697 24.9507 5.83336 24.4 6.26612 23.8916C6.69889 23.3833 7.30248 23.0868 8.07691 23.0021L21.3332 21.9218L26.4581 10.6114C26.6859 10.1031 27.0389 9.72184 27.5172 9.46768C27.9955 9.21351 28.4852 9.08643 28.9863 9.08643C29.4874 9.08643 29.9772 9.21351 30.4555 9.46768C30.9338 9.72184 31.2868 10.1031 31.5146 10.6114L36.6395 21.9218L49.8958 23.0021C50.6702 23.0868 51.2738 23.3833 51.7066 23.8916C52.1393 24.4 52.3557 24.9507 52.3557 25.5437C52.3557 25.8826 52.2988 26.2215 52.1849 26.5604C52.071 26.8993 51.8318 27.1958 51.4674 27.45L41.4227 35.5198L44.4293 47.5291C44.4748 47.6562 44.4976 47.8468 44.4976 48.101C44.4976 48.8212 44.2243 49.4248 43.6776 49.9119C43.131 50.3991 42.4932 50.6427 41.7643 50.6427C41.6277 50.6427 41.1493 50.5156 40.3294 50.2614L28.9863 43.9073L17.6433 50.2614C17.4155 50.3885 17.1764 50.4838 16.9258 50.5474C16.6753 50.6109 16.4361 50.6427 16.2084 50.6427C15.3884 50.6427 14.6823 50.3356 14.0901 49.7213C13.4979 49.1071 13.3157 48.3764 13.5434 47.5291Z" fill="#EDA732"/>
</g>
</svg>
