<svg width="136" height="136" viewBox="0 0 136 136" fill="none" xmlns="http://www.w3.org/2000/svg">
<g filter="url(#filter0_d_213_776)">
<rect x="15" y="8" width="106" height="106" rx="53" fill="white"/>
</g>
<mask id="mask0_213_776" style="mask-type:alpha" maskUnits="userSpaceOnUse" x="47" y="42" width="42" height="42">
<rect x="47" y="42" width="42" height="42" fill="#D9D9D9"/>
</mask>
<g mask="url(#mask0_213_776)">
<path d="M68 63C68.9625 63 69.7865 62.6573 70.4719 61.9719C71.1573 61.2865 71.5 60.4625 71.5 59.5C71.5 58.5375 71.1573 57.7135 70.4719 57.0281C69.7865 56.3427 68.9625 56 68 56C67.0375 56 66.2135 56.3427 65.5281 57.0281C64.8427 57.7135 64.5 58.5375 64.5 59.5C64.5 60.4625 64.8427 61.2865 65.5281 61.9719C66.2135 62.6573 67.0375 63 68 63ZM68 75.8625C71.5583 72.5958 74.1979 69.6281 75.9188 66.9594C77.6396 64.2906 78.5 61.9208 78.5 59.85C78.5 56.6708 77.4865 54.0677 75.4594 52.0406C73.4323 50.0135 70.9458 49 68 49C65.0542 49 62.5677 50.0135 60.5406 52.0406C58.5135 54.0677 57.5 56.6708 57.5 59.85C57.5 61.9208 58.3604 64.2906 60.0813 66.9594C61.8021 69.6281 64.4417 72.5958 68 75.8625ZM68 80.5C63.3042 76.5042 59.7969 72.7927 57.4781 69.3656C55.1594 65.9385 54 62.7667 54 59.85C54 55.475 55.4073 51.9896 58.2219 49.3938C61.0365 46.7979 64.2958 45.5 68 45.5C71.7042 45.5 74.9635 46.7979 77.7781 49.3938C80.5927 51.9896 82 55.475 82 59.85C82 62.7667 80.8406 65.9385 78.5219 69.3656C76.2031 72.7927 72.6958 76.5042 68 80.5Z" fill="#EDA732"/>
</g>
<g filter="url(#filter1_d_213_776)">
<rect x="23.4245" y="16.4245" width="89.1509" height="89.1509" rx="44.5755" stroke="#EDA732" stroke-width="0.849057" shape-rendering="crispEdges"/>
</g>
<defs>
<filter id="filter0_d_213_776" x="0.866667" y="0.933333" width="134.267" height="134.267" filterUnits="userSpaceOnUse" color-interpolation-filters="sRGB">
<feFlood flood-opacity="0" result="BackgroundImageFix"/>
<feColorMatrix in="SourceAlpha" type="matrix" values="0 0 0 0 0 0 0 0 0 0 0 0 0 0 0 0 0 0 127 0" result="hardAlpha"/>
<feOffset dy="7.06667"/>
<feGaussianBlur stdDeviation="7.06667"/>
<feComposite in2="hardAlpha" operator="out"/>
<feColorMatrix type="matrix" values="0 0 0 0 0.670588 0 0 0 0 0.745098 0 0 0 0 0.819608 0 0 0 0.4 0"/>
<feBlend mode="normal" in2="BackgroundImageFix" result="effect1_dropShadow_213_776"/>
<feBlend mode="normal" in="SourceGraphic" in2="effect1_dropShadow_213_776" result="shape"/>
</filter>
<filter id="filter1_d_213_776" x="11" y="10" width="114" height="114" filterUnits="userSpaceOnUse" color-interpolation-filters="sRGB">
<feFlood flood-opacity="0" result="BackgroundImageFix"/>
<feColorMatrix in="SourceAlpha" type="matrix" values="0 0 0 0 0 0 0 0 0 0 0 0 0 0 0 0 0 0 127 0" result="hardAlpha"/>
<feOffset dy="6"/>
<feGaussianBlur stdDeviation="6"/>
<feComposite in2="hardAlpha" operator="out"/>
<feColorMatrix type="matrix" values="0 0 0 0 0.670588 0 0 0 0 0.745098 0 0 0 0 0.819608 0 0 0 0.4 0"/>
<feBlend mode="normal" in2="BackgroundImageFix" result="effect1_dropShadow_213_776"/>
<feBlend mode="normal" in="SourceGraphic" in2="effect1_dropShadow_213_776" result="shape"/>
</filter>
</defs>
</svg>
