<svg width="1341" height="317" viewBox="0 0 1341 317" fill="none" xmlns="http://www.w3.org/2000/svg">
<rect width="1341" height="317" rx="19" fill="#D0DBE0"/>
<rect width="1205" height="219" transform="translate(68 49.5)" fill="#D0DBE0"/>
<path d="M79.096 86.804C75.6 86.804 72.066 85.474 69.254 82.548L72.446 78.596C74.46 80.952 77.044 81.978 79.172 81.978C81.756 81.978 83.048 80.8 83.048 79.128C83.048 77.152 81.604 76.43 78.336 75.328C74.27 73.884 70.204 71.984 70.204 66.892C70.204 62.56 74.004 59.254 78.868 59.178C82.212 59.14 85.328 60.394 87.95 62.598L84.872 66.626C82.63 64.764 80.654 63.966 78.982 63.966C77.12 63.966 75.752 64.954 75.752 66.664C75.714 68.336 77.196 69.058 80.274 70.274C84.948 72.098 88.634 73.314 88.634 78.52C88.634 84.41 83.504 86.804 79.096 86.804ZM101.553 86.804C95.6634 86.804 91.7114 82.776 91.7114 77.228C91.7114 71.68 95.6634 67.652 101.553 67.652C107.329 67.652 111.433 71.528 111.433 77.228C111.433 82.928 107.329 86.804 101.553 86.804ZM101.553 82.358C104.251 82.358 106.379 80.23 106.379 77.228C106.379 74.188 104.327 72.098 101.553 72.098C98.6654 72.098 96.7274 74.302 96.7274 77.228C96.7274 80.116 98.7414 82.358 101.553 82.358ZM115.638 86.5V58.532H120.616V86.5H115.638ZM128.611 65.334C126.939 65.334 125.533 63.966 125.533 62.294C125.533 60.622 126.939 59.254 128.611 59.254C130.321 59.254 131.727 60.622 131.727 62.294C131.727 63.966 130.321 65.334 128.611 65.334ZM126.103 86.5V67.956H131.081V86.5H126.103ZM144.89 86.804C139.38 86.804 135.352 82.928 135.352 77.228C135.352 71.528 139.38 67.652 145.118 67.652C148.082 67.652 151.122 68.83 152.984 71.186L149.64 74.074C148.652 72.934 147.208 72.098 145.308 72.098C142.344 72.098 140.368 74.188 140.368 77.19C140.368 80.23 142.42 82.358 145.346 82.358C147.322 82.358 148.804 81.446 149.678 80.458L153.06 83.46C151.464 85.322 148.614 86.804 144.89 86.804ZM159.264 65.334C157.592 65.334 156.186 63.966 156.186 62.294C156.186 60.622 157.592 59.254 159.264 59.254C160.974 59.254 162.38 60.622 162.38 62.294C162.38 63.966 160.974 65.334 159.264 65.334ZM156.756 86.5V67.956H161.734V86.5H156.756ZM172.657 86.804C169.465 86.804 167.375 84.828 167.375 80.648V72.06H165.171V67.956H167.375V61.876L172.315 61.344V67.956H177.369V72.06H172.315V79.964C172.315 81.56 172.809 82.32 173.949 82.32C174.557 82.32 175.469 82.092 176.305 81.674L177.597 85.664C176.381 86.31 175.165 86.804 172.657 86.804ZM193.502 67.956H198.442V86.5H193.73V84.258H193.616C192.362 85.892 190.462 86.804 188.068 86.804C182.938 86.804 179.214 83.004 179.214 77.266C179.214 71.642 182.976 67.652 187.954 67.652C190.158 67.652 192.058 68.45 193.388 70.046H193.502V67.956ZM188.98 82.358C191.564 82.358 193.692 80.344 193.692 77.304C193.692 74.34 191.716 72.098 189.018 72.098C186.358 72.098 184.23 74.112 184.23 77.304C184.23 80.306 186.206 82.358 188.98 82.358ZM219.081 86.804C215.889 86.804 213.799 84.828 213.799 80.648V72.06H211.595V67.956H213.799V61.876L218.739 61.344V67.956H223.793V72.06H218.739V79.964C218.739 81.56 219.233 82.32 220.373 82.32C220.981 82.32 221.893 82.092 222.729 81.674L224.021 85.664C222.805 86.31 221.589 86.804 219.081 86.804ZM239.565 67.956H244.543V86.5H239.565V84.22H239.489C238.083 85.93 236.069 86.804 233.979 86.804C229.989 86.804 227.177 84.79 227.177 79.128V67.956H232.117V77.798C232.117 81.218 233.143 82.358 235.461 82.358C237.627 82.358 239.565 80.534 239.565 76.962V67.956ZM267.945 86.804C262.435 86.804 258.407 82.928 258.407 77.228C258.407 71.528 262.435 67.652 268.173 67.652C271.137 67.652 274.177 68.83 276.039 71.186L272.695 74.074C271.707 72.934 270.263 72.098 268.363 72.098C265.399 72.098 263.423 74.188 263.423 77.19C263.423 80.23 265.475 82.358 268.401 82.358C270.377 82.358 271.859 81.446 272.733 80.458L276.115 83.46C274.519 85.322 271.669 86.804 267.945 86.804ZM288.436 86.804C282.546 86.804 278.594 82.776 278.594 77.228C278.594 71.68 282.546 67.652 288.436 67.652C294.212 67.652 298.316 71.528 298.316 77.228C298.316 82.928 294.212 86.804 288.436 86.804ZM288.436 82.358C291.134 82.358 293.262 80.23 293.262 77.228C293.262 74.188 291.21 72.098 288.436 72.098C285.548 72.098 283.61 74.302 283.61 77.228C283.61 80.116 285.624 82.358 288.436 82.358ZM307.958 86.804C304.766 86.804 302.676 84.828 302.676 80.648V72.06H300.472V67.956H302.676V61.876L307.616 61.344V67.956H312.67V72.06H307.616V79.964C307.616 81.56 308.11 82.32 309.25 82.32C309.858 82.32 310.77 82.092 311.606 81.674L312.898 85.664C311.682 86.31 310.466 86.804 307.958 86.804ZM319.094 65.334C317.422 65.334 316.016 63.966 316.016 62.294C316.016 60.622 317.422 59.254 319.094 59.254C320.804 59.254 322.21 60.622 322.21 62.294C322.21 63.966 320.804 65.334 319.094 65.334ZM316.586 86.5V67.956H321.564V86.5H316.586ZM341.338 71.3L332.256 82.358V82.434H341.148V86.5H325.72V83.118L334.65 72.06V72.022H326.366V67.956H341.338V71.3ZM358.008 67.956H362.948V86.5H358.236V84.258H358.122C356.868 85.892 354.968 86.804 352.574 86.804C347.444 86.804 343.72 83.004 343.72 77.266C343.72 71.642 347.482 67.652 352.46 67.652C354.664 67.652 356.564 68.45 357.894 70.046H358.008V67.956ZM353.486 82.358C356.07 82.358 358.198 80.344 358.198 77.304C358.198 74.34 356.222 72.098 353.524 72.098C350.864 72.098 348.736 74.112 348.736 77.304C348.736 80.306 350.712 82.358 353.486 82.358ZM376.378 86.804C370.868 86.804 366.84 82.928 366.84 77.228C366.84 71.528 370.868 67.652 376.606 67.652C379.57 67.652 382.61 68.83 384.472 71.186L381.128 74.074C380.14 72.934 378.696 72.098 376.796 72.098C373.832 72.098 371.856 74.188 371.856 77.19C371.856 80.23 373.908 82.358 376.834 82.358C378.81 82.358 380.292 81.446 381.166 80.458L384.548 83.46C382.952 85.322 380.102 86.804 376.378 86.804ZM390.752 65.334C389.08 65.334 387.674 63.966 387.674 62.294C387.674 60.622 389.08 59.254 390.752 59.254C392.462 59.254 393.868 60.622 393.868 62.294C393.868 63.966 392.462 65.334 390.752 65.334ZM388.244 86.5V67.956H393.222V86.5H388.244ZM404.903 65.372L409.197 59.786L414.403 59.748L409.691 65.372H404.903ZM407.335 86.804C401.445 86.804 397.493 82.776 397.493 77.228C397.493 71.68 401.445 67.652 407.335 67.652C413.111 67.652 417.215 71.528 417.215 77.228C417.215 82.928 413.111 86.804 407.335 86.804ZM407.335 82.358C410.033 82.358 412.161 80.23 412.161 77.228C412.161 74.188 410.109 72.098 407.335 72.098C404.447 72.098 402.509 74.302 402.509 77.228C402.509 80.116 404.523 82.358 407.335 82.358ZM432.174 67.652C436.164 67.652 438.938 69.78 438.938 75.48V86.5H433.96V76.734C433.96 73.2 432.706 72.098 430.388 72.098C427.88 72.098 426.17 73.846 426.17 77.152V86.5H421.192V67.956H426.17V70.35H426.246C427.766 68.564 429.894 67.652 432.174 67.652ZM464.34 67.652C469.318 67.652 473.08 71.642 473.08 77.266C473.08 83.004 469.356 86.804 464.188 86.804C461.832 86.804 460.008 85.93 458.716 84.41H458.64V94.024H453.662V67.956H458.64V70.084H458.716C460.122 68.488 462.06 67.652 464.34 67.652ZM463.276 82.358C466.088 82.358 468.026 80.306 468.026 77.304C468.026 74.112 465.936 72.098 463.276 72.098C460.426 72.098 458.45 74.34 458.45 77.304C458.45 80.344 460.578 82.358 463.276 82.358ZM494.405 77.038C494.405 77.646 494.405 78.52 494.291 78.824H481.257C481.865 81.028 483.613 82.396 486.007 82.396C487.983 82.434 489.427 81.56 490.453 80.306L493.683 83.308C492.087 85.322 489.389 86.804 485.665 86.804C480.231 86.804 476.127 83.004 476.127 77.19C476.127 71.566 480.041 67.652 485.323 67.652C490.757 67.652 494.405 71.604 494.405 77.038ZM485.475 72.022C483.461 72.022 481.865 73.124 481.295 75.252H489.465C488.971 73.314 487.641 72.022 485.475 72.022ZM509.019 67.652C509.171 67.652 509.323 67.652 509.399 67.69V73.086C508.905 73.048 508.373 73.048 508.107 73.048C505.029 73.048 503.357 75.138 503.357 77.874V86.5H498.379V67.956H503.357V70.692H503.395C504.801 68.716 506.815 67.652 509.019 67.652ZM518.633 86.804C515.669 86.804 513.161 85.854 511.109 84.106L513.541 80.648C515.061 82.092 516.657 82.814 518.671 82.814C520.115 82.814 520.951 82.206 520.951 81.294C520.951 80.42 520.001 80.002 517.569 79.242C514.529 78.216 511.869 76.772 511.869 73.2C511.869 69.856 514.757 67.652 518.557 67.652C521.141 67.652 523.231 68.336 525.321 69.97L522.927 73.618C521.483 72.25 519.849 71.642 518.481 71.642C517.683 71.642 516.657 72.06 516.657 73.048C516.657 73.808 517.645 74.34 519.469 75.024C523.497 76.506 525.853 77.38 525.853 81.028C525.853 84.334 523.497 86.804 518.633 86.804ZM538.368 86.804C532.478 86.804 528.526 82.776 528.526 77.228C528.526 71.68 532.478 67.652 538.368 67.652C544.144 67.652 548.248 71.528 548.248 77.228C548.248 82.928 544.144 86.804 538.368 86.804ZM538.368 82.358C541.066 82.358 543.194 80.23 543.194 77.228C543.194 74.188 541.142 72.098 538.368 72.098C535.48 72.098 533.542 74.302 533.542 77.228C533.542 80.116 535.556 82.358 538.368 82.358ZM563.207 67.652C567.197 67.652 569.971 69.78 569.971 75.48V86.5H564.993V76.734C564.993 73.2 563.739 72.098 561.421 72.098C558.913 72.098 557.203 73.846 557.203 77.152V86.5H552.225V67.956H557.203V70.35H557.279C558.799 68.564 560.927 67.652 563.207 67.652ZM587.975 67.956H592.915V86.5H588.203V84.258H588.089C586.835 85.892 584.935 86.804 582.541 86.804C577.411 86.804 573.687 83.004 573.687 77.266C573.687 71.642 577.449 67.652 582.427 67.652C584.631 67.652 586.531 68.45 587.861 70.046H587.975V67.956ZM583.453 82.358C586.037 82.358 588.165 80.344 588.165 77.304C588.165 74.34 586.189 72.098 583.491 72.098C580.831 72.098 578.703 74.112 578.703 77.304C578.703 80.306 580.679 82.358 583.453 82.358ZM598.023 86.5V58.532H603.001V86.5H598.023ZM610.996 65.334C609.324 65.334 607.918 63.966 607.918 62.294C607.918 60.622 609.324 59.254 610.996 59.254C612.706 59.254 614.112 60.622 614.112 62.294C614.112 63.966 612.706 65.334 610.996 65.334ZM608.488 86.5V67.956H613.466V86.5H608.488ZM633.241 71.3L624.159 82.358V82.434H633.051V86.5H617.623V83.118L626.553 72.06V72.022H618.269V67.956H633.241V71.3ZM649.911 67.956H654.851V86.5H650.139V84.258H650.025C648.771 85.892 646.871 86.804 644.477 86.804C639.347 86.804 635.623 83.004 635.623 77.266C635.623 71.642 639.385 67.652 644.363 67.652C646.567 67.652 648.467 68.45 649.797 70.046H649.911V67.956ZM645.389 82.358C647.973 82.358 650.101 80.344 650.101 77.304C650.101 74.34 648.125 72.098 645.427 72.098C642.767 72.098 640.639 74.112 640.639 77.304C640.639 80.306 642.615 82.358 645.389 82.358ZM673.145 58.532H678.123V86.5H673.373V84.258H673.297C672.005 85.892 670.067 86.804 667.597 86.804C662.467 86.804 658.705 83.004 658.705 77.266C658.705 71.642 662.467 67.652 667.445 67.652C669.725 67.652 671.663 68.45 673.031 70.046H673.145V58.532ZM668.509 82.358C671.245 82.358 673.411 80.344 673.411 77.304C673.411 74.34 671.359 72.098 668.509 72.098C665.849 72.098 663.759 74.112 663.759 77.304C663.759 80.306 665.735 82.358 668.509 82.358ZM696.409 67.956H701.349V86.5H696.637V84.258H696.523C695.269 85.892 693.369 86.804 690.975 86.804C685.845 86.804 682.121 83.004 682.121 77.266C682.121 71.642 685.883 67.652 690.861 67.652C693.065 67.652 694.965 68.45 696.295 70.046H696.409V67.956ZM691.887 82.358C694.471 82.358 696.599 80.344 696.599 77.304C696.599 74.34 694.623 72.098 691.925 72.098C689.265 72.098 687.137 74.112 687.137 77.304C687.137 80.306 689.113 82.358 691.887 82.358Z" fill="black"/>
<path d="M77.888 153.596C73.328 153.596 69.512 150.596 69.512 145.052C69.512 140.204 72.488 136.34 77.888 136.34C80.24 136.34 82.616 137.276 84.464 139.556L83.408 140.42C81.944 138.596 79.952 137.66 77.888 137.66C73.472 137.66 70.928 140.828 70.928 145.052C70.928 149.588 73.976 152.252 77.888 152.252C80.36 152.252 82.112 151.1 83.408 149.516L84.464 150.38C82.976 152.252 80.888 153.596 77.888 153.596ZM95.3992 141.836H96.6712V153.5H95.3992V151.34H95.3512C94.3912 152.78 92.8792 153.62 91.3192 153.62C88.6552 153.62 87.0472 151.988 87.0472 148.82V141.836H88.3192V148.436C88.3192 151.388 89.4952 152.42 91.4872 152.42C93.5512 152.42 95.3992 150.524 95.3992 147.596V141.836ZM108.812 136.772L105.836 140.108H104.348L107.228 136.772H108.812ZM110.396 147.356C110.396 147.644 110.372 147.956 110.372 147.98H100.964C101.108 150.644 102.908 152.42 105.332 152.42C106.94 152.42 108.164 151.7 109.004 150.668L109.916 151.436C108.908 152.756 107.372 153.62 105.356 153.62C102.116 153.62 99.6682 151.196 99.6682 147.668C99.6682 144.164 102.092 141.74 105.14 141.74C108.308 141.74 110.396 144.14 110.396 147.356ZM105.236 142.94C103.1 142.94 101.372 144.452 101.036 146.804H109.124C108.86 144.5 107.396 142.94 105.236 142.94ZM119.299 141.716C121.627 141.716 123.235 143.108 123.235 146.588V153.5H121.963V146.756C121.963 143.708 120.643 142.916 119.011 142.916C116.443 142.916 114.739 144.812 114.739 147.716V153.5H113.467V141.836H114.739V144.116H114.763C115.747 142.58 117.403 141.716 119.299 141.716ZM130.041 153.62C127.929 153.62 127.209 152.348 127.209 150.212V143.012H125.673V141.836H127.209V137.756L128.481 137.612V141.836H132.729V143.012H128.481V149.9C128.481 151.508 128.793 152.396 130.185 152.396C131.073 152.396 131.889 152.012 132.393 151.724L132.705 152.876C132.129 153.212 131.289 153.62 130.041 153.62ZM144.46 141.836H145.708V153.5H144.508V151.268H144.46C143.548 152.708 142.012 153.62 140.044 153.62C136.9 153.62 134.332 151.316 134.332 147.764C134.332 144.38 136.66 141.716 139.996 141.716C141.82 141.716 143.452 142.604 144.412 144.14H144.46V141.836ZM140.116 152.42C142.468 152.42 144.508 150.548 144.508 147.788C144.508 145.076 142.684 142.94 140.14 142.94C137.668 142.94 135.628 144.836 135.628 147.788C135.628 150.404 137.452 152.42 140.116 152.42ZM155.299 141.716C157.627 141.716 159.235 143.108 159.235 146.588V153.5H157.963V146.756C157.963 143.708 156.643 142.916 155.011 142.916C152.443 142.916 150.739 144.812 150.739 147.716V153.5H149.467V141.836H150.739V144.116H150.763C151.747 142.58 153.403 141.716 155.299 141.716ZM168.057 153.62C164.481 153.62 162.129 150.98 162.129 147.692C162.129 144.38 164.481 141.716 168.057 141.716C171.417 141.716 173.961 144.14 173.961 147.692C173.961 151.196 171.417 153.62 168.057 153.62ZM168.033 152.42C170.601 152.42 172.665 150.5 172.665 147.692C172.665 144.836 170.601 142.916 168.033 142.916C165.249 142.916 163.425 145.052 163.425 147.692C163.425 150.284 165.273 152.42 168.033 152.42ZM180.485 153.62C178.541 153.62 177.077 152.924 175.997 151.964L176.717 150.98C177.605 151.82 178.637 152.42 180.485 152.42C182.213 152.42 183.197 151.532 183.197 150.38C183.197 149.108 181.853 148.748 179.981 148.1C178.085 147.452 176.549 146.708 176.549 144.716C176.549 142.988 178.061 141.74 180.173 141.74C181.469 141.74 182.789 142.076 184.061 143.156L183.341 144.14C182.237 143.18 181.133 142.916 180.053 142.916C178.877 142.916 177.821 143.564 177.821 144.716C177.821 145.988 178.973 146.348 180.389 146.852C182.813 147.716 184.517 148.172 184.493 150.452C184.493 152.132 183.149 153.62 180.485 153.62ZM197.377 153.62C195.265 153.62 194.545 152.348 194.545 150.212V143.012H193.009V141.836H194.545V137.756L195.817 137.612V141.836H200.065V143.012H195.817V149.9C195.817 151.508 196.129 152.396 197.521 152.396C198.409 152.396 199.225 152.012 199.729 151.724L200.041 152.876C199.465 153.212 198.625 153.62 197.377 153.62ZM211.063 141.836H212.335V153.5H211.063V151.34H211.015C210.055 152.78 208.543 153.62 206.983 153.62C204.319 153.62 202.711 151.988 202.711 148.82V141.836H203.983V148.436C203.983 151.388 205.159 152.42 207.151 152.42C209.215 152.42 211.063 150.524 211.063 147.596V141.836ZM219.508 153.62C217.564 153.62 216.1 152.924 215.02 151.964L215.74 150.98C216.628 151.82 217.66 152.42 219.508 152.42C221.236 152.42 222.22 151.532 222.22 150.38C222.22 149.108 220.876 148.748 219.004 148.1C217.108 147.452 215.572 146.708 215.572 144.716C215.572 142.988 217.084 141.74 219.196 141.74C220.492 141.74 221.812 142.076 223.084 143.156L222.364 144.14C221.26 143.18 220.156 142.916 219.076 142.916C217.9 142.916 216.844 143.564 216.844 144.716C216.844 145.988 217.996 146.348 219.412 146.852C221.836 147.716 223.54 148.172 223.516 150.452C223.516 152.132 222.172 153.62 219.508 153.62ZM239.089 141.716C241.417 141.716 243.025 143.108 243.025 146.588V153.5H241.753V146.756C241.753 143.708 240.433 142.916 238.801 142.916C236.233 142.916 234.529 144.812 234.529 147.716V153.5H233.257V141.836H234.529V144.116H234.553C235.537 142.58 237.193 141.716 239.089 141.716ZM256.646 147.356C256.646 147.644 256.622 147.956 256.622 147.98H247.214C247.358 150.644 249.158 152.42 251.582 152.42C253.19 152.42 254.414 151.7 255.254 150.668L256.166 151.436C255.158 152.756 253.622 153.62 251.606 153.62C248.366 153.62 245.918 151.196 245.918 147.668C245.918 144.164 248.342 141.74 251.39 141.74C254.558 141.74 256.646 144.14 256.646 147.356ZM251.486 142.94C249.35 142.94 247.622 144.452 247.286 146.804H255.374C255.11 144.5 253.646 142.94 251.486 142.94ZM264.637 153.62C261.277 153.62 258.949 151.196 258.949 147.692C258.949 144.188 261.277 141.74 264.685 141.74C266.365 141.74 268.093 142.388 269.221 143.684L268.309 144.5C267.541 143.588 266.269 142.94 264.733 142.94C262.069 142.94 260.245 144.908 260.245 147.668C260.245 150.5 262.069 152.42 264.733 152.42C266.197 152.42 267.565 151.82 268.381 150.884L269.269 151.724C268.285 152.804 266.581 153.62 264.637 153.62ZM282.076 147.356C282.076 147.644 282.052 147.956 282.052 147.98H272.644C272.788 150.644 274.588 152.42 277.012 152.42C278.62 152.42 279.844 151.7 280.684 150.668L281.596 151.436C280.588 152.756 279.052 153.62 277.036 153.62C273.796 153.62 271.348 151.196 271.348 147.668C271.348 144.164 273.772 141.74 276.82 141.74C279.988 141.74 282.076 144.14 282.076 147.356ZM276.916 142.94C274.78 142.94 273.052 144.452 272.716 146.804H280.804C280.54 144.5 279.076 142.94 276.916 142.94ZM288.555 153.62C286.611 153.62 285.147 152.924 284.067 151.964L284.787 150.98C285.675 151.82 286.707 152.42 288.555 152.42C290.283 152.42 291.267 151.532 291.267 150.38C291.267 149.108 289.923 148.748 288.051 148.1C286.155 147.452 284.619 146.708 284.619 144.716C284.619 142.988 286.131 141.74 288.243 141.74C289.539 141.74 290.859 142.076 292.131 143.156L291.411 144.14C290.307 143.18 289.203 142.916 288.123 142.916C286.947 142.916 285.891 143.564 285.891 144.716C285.891 145.988 287.043 146.348 288.459 146.852C290.883 147.716 292.587 148.172 292.563 150.452C292.563 152.132 291.219 153.62 288.555 153.62ZM296.346 139.364C295.722 139.364 295.266 138.908 295.266 138.308C295.266 137.708 295.722 137.252 296.346 137.252C296.946 137.252 297.402 137.708 297.402 138.308C297.402 138.908 296.946 139.364 296.346 139.364ZM295.674 153.5V141.836H296.946V153.5H295.674ZM310.375 135.836H311.623V153.5H310.399V151.292H310.351C309.439 152.732 307.927 153.62 305.935 153.62C302.791 153.62 300.223 151.316 300.223 147.764C300.223 144.38 302.551 141.716 305.887 141.716C307.735 141.716 309.343 142.604 310.327 144.14H310.375V135.836ZM306.031 152.42C308.383 152.42 310.399 150.548 310.399 147.788C310.399 145.076 308.575 142.94 306.031 142.94C303.559 142.94 301.519 144.836 301.519 147.788C301.519 150.404 303.343 152.42 306.031 152.42ZM324.858 141.836H326.106V153.5H324.906V151.268H324.858C323.946 152.708 322.41 153.62 320.442 153.62C317.298 153.62 314.73 151.316 314.73 147.764C314.73 144.38 317.058 141.716 320.394 141.716C322.218 141.716 323.85 142.604 324.81 144.14H324.858V141.836ZM320.514 152.42C322.866 152.42 324.906 150.548 324.906 147.788C324.906 145.076 323.082 142.94 320.538 142.94C318.066 142.94 316.026 144.836 316.026 147.788C316.026 150.404 317.85 152.42 320.514 152.42ZM339.25 135.836H340.498V153.5H339.274V151.292H339.226C338.314 152.732 336.802 153.62 334.81 153.62C331.666 153.62 329.098 151.316 329.098 147.764C329.098 144.38 331.426 141.716 334.762 141.716C336.61 141.716 338.218 142.604 339.202 144.14H339.25V135.836ZM334.906 152.42C337.258 152.42 339.274 150.548 339.274 147.788C339.274 145.076 337.45 142.94 334.906 142.94C332.434 142.94 330.394 144.836 330.394 147.788C330.394 150.404 332.218 152.42 334.906 152.42ZM354.357 147.356C354.357 147.644 354.333 147.956 354.333 147.98H344.925C345.069 150.644 346.869 152.42 349.293 152.42C350.901 152.42 352.125 151.7 352.965 150.668L353.877 151.436C352.869 152.756 351.333 153.62 349.317 153.62C346.077 153.62 343.629 151.196 343.629 147.668C343.629 144.164 346.053 141.74 349.101 141.74C352.269 141.74 354.357 144.14 354.357 147.356ZM349.197 142.94C347.061 142.94 345.333 144.452 344.997 146.804H353.085C352.821 144.5 351.357 142.94 349.197 142.94ZM360.836 153.62C358.892 153.62 357.428 152.924 356.348 151.964L357.068 150.98C357.956 151.82 358.988 152.42 360.836 152.42C362.564 152.42 363.548 151.532 363.548 150.38C363.548 149.108 362.204 148.748 360.332 148.1C358.436 147.452 356.9 146.708 356.9 144.716C356.9 142.988 358.412 141.74 360.524 141.74C361.82 141.74 363.14 142.076 364.412 143.156L363.692 144.14C362.588 143.18 361.484 142.916 360.404 142.916C359.228 142.916 358.172 143.564 358.172 144.716C358.172 145.988 359.324 146.348 360.74 146.852C363.164 147.716 364.868 148.172 364.844 150.452C364.844 152.132 363.5 153.62 360.836 153.62ZM383.105 141.836H384.497L377.705 158.252H376.337L378.401 153.164L373.313 141.836H374.681L379.025 151.652H379.049L383.105 141.836ZM397.041 153.62C394.929 153.62 394.209 152.348 394.209 150.212V143.012H392.673V141.836H394.209V137.756L395.481 137.612V141.836H399.729V143.012H395.481V149.9C395.481 151.508 395.793 152.396 397.185 152.396C398.073 152.396 398.889 152.012 399.393 151.724L399.705 152.876C399.129 153.212 398.289 153.62 397.041 153.62ZM412.06 147.356C412.06 147.644 412.036 147.956 412.036 147.98H402.628C402.772 150.644 404.572 152.42 406.996 152.42C408.604 152.42 409.828 151.7 410.668 150.668L411.58 151.436C410.572 152.756 409.036 153.62 407.02 153.62C403.78 153.62 401.332 151.196 401.332 147.668C401.332 144.164 403.756 141.74 406.804 141.74C409.972 141.74 412.06 144.14 412.06 147.356ZM406.9 142.94C404.764 142.94 403.036 144.452 402.7 146.804H410.788C410.524 144.5 409.06 142.94 406.9 142.94ZM427.641 141.716C430.977 141.716 433.305 144.38 433.305 147.764C433.305 151.316 430.737 153.62 427.593 153.62C425.625 153.62 424.089 152.708 423.177 151.268H423.129V153.5H421.905V135.836H423.177V144.14H423.225C424.185 142.604 425.817 141.716 427.641 141.716ZM427.521 152.42C430.185 152.42 432.009 150.404 432.009 147.788C432.009 144.836 429.969 142.94 427.497 142.94C424.953 142.94 423.129 145.076 423.129 147.788C423.129 150.548 425.169 152.42 427.521 152.42ZM441.74 141.716C441.956 141.716 442.172 141.716 442.364 141.74V143.132C442.1 143.108 441.836 143.084 441.62 143.084C439.244 143.084 437.732 145.028 437.732 147.788V153.5H436.46V141.836H437.732V144.068H437.78C438.62 142.58 440.036 141.716 441.74 141.716ZM445.502 139.364C444.878 139.364 444.422 138.908 444.422 138.308C444.422 137.708 444.878 137.252 445.502 137.252C446.102 137.252 446.558 137.708 446.558 138.308C446.558 138.908 446.102 139.364 445.502 139.364ZM444.83 153.5V141.836H446.102V153.5H444.83ZM455.979 141.716C458.307 141.716 459.915 143.108 459.915 146.588V153.5H458.643V146.756C458.643 143.708 457.323 142.916 455.691 142.916C453.123 142.916 451.419 144.812 451.419 147.716V153.5H450.147V141.836H451.419V144.116H451.443C452.427 142.58 454.083 141.716 455.979 141.716ZM472.961 135.836H474.209V153.5H472.985V151.292H472.937C472.025 152.732 470.513 153.62 468.521 153.62C465.377 153.62 462.809 151.316 462.809 147.764C462.809 144.38 465.137 141.716 468.473 141.716C470.321 141.716 471.929 142.604 472.913 144.14H472.961V135.836ZM468.617 152.42C470.969 152.42 472.985 150.548 472.985 147.788C472.985 145.076 471.161 142.94 468.617 142.94C466.145 142.94 464.105 144.836 464.105 147.788C464.105 150.404 465.929 152.42 468.617 152.42ZM487.444 141.836H488.692V153.5H487.492V151.268H487.444C486.532 152.708 484.996 153.62 483.028 153.62C479.884 153.62 477.316 151.316 477.316 147.764C477.316 144.38 479.644 141.716 482.98 141.716C484.804 141.716 486.436 142.604 487.396 144.14H487.444V141.836ZM483.1 152.42C485.452 152.42 487.492 150.548 487.492 147.788C487.492 145.076 485.668 142.94 483.124 142.94C480.652 142.94 478.612 144.836 478.612 147.788C478.612 150.404 480.436 152.42 483.1 152.42ZM497.732 141.716C497.948 141.716 498.164 141.716 498.356 141.74V143.132C498.092 143.108 497.828 143.084 497.612 143.084C495.236 143.084 493.724 145.028 493.724 147.788V153.5H492.452V141.836H493.724V144.068H493.772C494.612 142.58 496.028 141.716 497.732 141.716ZM510.217 147.356C510.217 147.644 510.193 147.956 510.193 147.98H500.785C500.929 150.644 502.729 152.42 505.153 152.42C506.761 152.42 507.985 151.7 508.825 150.668L509.737 151.436C508.729 152.756 507.193 153.62 505.177 153.62C501.937 153.62 499.489 151.196 499.489 147.668C499.489 144.164 501.913 141.74 504.961 141.74C508.129 141.74 510.217 144.14 510.217 147.356ZM505.057 142.94C502.921 142.94 501.193 144.452 500.857 146.804H508.945C508.681 144.5 507.217 142.94 505.057 142.94ZM526.728 141.716C529.344 141.716 530.664 143.396 530.664 146.684V153.524H529.392V147.092C529.392 143.996 528.336 142.916 526.416 142.916C524.352 142.916 522.624 144.788 522.624 147.716V153.524H521.352V146.996C521.352 143.996 520.224 142.916 518.424 142.916C516.264 142.916 514.56 144.788 514.56 147.716V153.5H513.288V141.836H514.56V144.068H514.608C515.568 142.58 517.104 141.716 518.736 141.716C520.512 141.716 521.736 142.58 522.288 144.26H522.36C523.296 142.652 524.88 141.716 526.728 141.716ZM539.448 153.62C535.872 153.62 533.52 150.98 533.52 147.692C533.52 144.38 535.872 141.716 539.448 141.716C542.808 141.716 545.352 144.14 545.352 147.692C545.352 151.196 542.808 153.62 539.448 153.62ZM539.424 152.42C541.992 152.42 544.056 150.5 544.056 147.692C544.056 144.836 541.992 142.916 539.424 142.916C536.64 142.916 534.816 145.052 534.816 147.692C534.816 150.284 536.664 152.42 539.424 152.42ZM551.875 153.62C549.931 153.62 548.467 152.924 547.387 151.964L548.107 150.98C548.995 151.82 550.027 152.42 551.875 152.42C553.603 152.42 554.587 151.532 554.587 150.38C554.587 149.108 553.243 148.748 551.371 148.1C549.475 147.452 547.939 146.708 547.939 144.716C547.939 142.988 549.451 141.74 551.563 141.74C552.859 141.74 554.179 142.076 555.451 143.156L554.731 144.14C553.627 143.18 552.523 142.916 551.443 142.916C550.267 142.916 549.211 143.564 549.211 144.716C549.211 145.988 550.363 146.348 551.779 146.852C554.203 147.716 555.907 148.172 555.883 150.452C555.883 152.132 554.539 153.62 551.875 153.62ZM565.768 153.5V135.836H567.04V153.5H565.768ZM580.397 141.836H581.645V153.5H580.445V151.268H580.397C579.485 152.708 577.949 153.62 575.981 153.62C572.837 153.62 570.269 151.316 570.269 147.764C570.269 144.38 572.597 141.716 575.933 141.716C577.757 141.716 579.389 142.604 580.349 144.14H580.397V141.836ZM576.053 152.42C578.405 152.42 580.445 150.548 580.445 147.788C580.445 145.076 578.621 142.94 576.077 142.94C573.605 142.94 571.565 144.836 571.565 147.788C571.565 150.404 573.389 152.42 576.053 152.42ZM605.618 141.716C608.234 141.716 609.554 143.396 609.554 146.684V153.524H608.282V147.092C608.282 143.996 607.226 142.916 605.306 142.916C603.242 142.916 601.514 144.788 601.514 147.716V153.524H600.242V146.996C600.242 143.996 599.114 142.916 597.314 142.916C595.154 142.916 593.45 144.788 593.45 147.716V153.5H592.178V141.836H593.45V144.068H593.498C594.458 142.58 595.994 141.716 597.626 141.716C599.402 141.716 600.626 142.58 601.178 144.26H601.25C602.186 142.652 603.77 141.716 605.618 141.716ZM623.138 147.356C623.138 147.644 623.114 147.956 623.114 147.98H613.706C613.85 150.644 615.65 152.42 618.074 152.42C619.682 152.42 620.906 151.7 621.746 150.668L622.658 151.436C621.65 152.756 620.114 153.62 618.098 153.62C614.858 153.62 612.41 151.196 612.41 147.668C612.41 144.164 614.834 141.74 617.882 141.74C621.05 141.74 623.138 144.14 623.138 147.356ZM617.978 142.94C615.842 142.94 614.114 144.452 613.778 146.804H621.866C621.602 144.5 620.138 142.94 617.978 142.94ZM626.858 139.412C626.234 139.412 625.778 138.956 625.778 138.356C625.778 137.756 626.234 137.3 626.858 137.3C627.458 137.3 627.914 137.756 627.914 138.356C627.914 138.956 627.458 139.412 626.858 139.412ZM624.794 158.372C624.266 158.372 623.642 158.276 623.018 157.988L623.21 156.812C623.642 157.076 624.17 157.172 624.554 157.172C625.538 157.172 626.234 156.596 626.234 155.108V141.836H627.506V155.108C627.506 157.004 626.69 158.372 624.794 158.372ZM636.362 153.62C632.786 153.62 630.434 150.98 630.434 147.692C630.434 144.38 632.786 141.716 636.362 141.716C639.722 141.716 642.266 144.14 642.266 147.692C642.266 151.196 639.722 153.62 636.362 153.62ZM636.338 152.42C638.906 152.42 640.97 150.5 640.97 147.692C640.97 144.836 638.906 142.916 636.338 142.916C633.554 142.916 631.73 145.052 631.73 147.692C631.73 150.284 633.578 152.42 636.338 152.42ZM650.662 141.716C650.878 141.716 651.094 141.716 651.286 141.74V143.132C651.022 143.108 650.758 143.084 650.542 143.084C648.166 143.084 646.654 145.028 646.654 147.788V153.5H645.382V141.836H646.654V144.068H646.702C647.542 142.58 648.958 141.716 650.662 141.716ZM665.542 153.62C661.965 153.62 659.614 150.98 659.614 147.692C659.614 144.38 661.965 141.716 665.542 141.716C668.902 141.716 671.446 144.14 671.446 147.692C671.446 151.196 668.902 153.62 665.542 153.62ZM665.518 152.42C668.086 152.42 670.15 150.5 670.15 147.692C670.15 144.836 668.086 142.916 665.518 142.916C662.734 142.916 660.91 145.052 660.91 147.692C660.91 150.284 662.758 152.42 665.518 152.42ZM680.297 141.716C683.633 141.716 685.961 144.38 685.961 147.764C685.961 151.316 683.393 153.62 680.249 153.62C678.305 153.62 676.793 152.756 675.881 151.34H675.833V158.252H674.561V141.836H675.833V144.164H675.857C676.841 142.604 678.473 141.716 680.297 141.716ZM680.177 152.42C682.841 152.42 684.665 150.404 684.665 147.788C684.665 144.836 682.625 142.94 680.153 142.94C677.609 142.94 675.785 145.076 675.785 147.788C675.785 150.548 677.825 152.42 680.177 152.42ZM694.036 153.62C690.676 153.62 688.348 151.196 688.348 147.692C688.348 144.188 690.676 141.74 694.084 141.74C695.764 141.74 697.492 142.388 698.62 143.684L697.708 144.5C696.94 143.588 695.668 142.94 694.132 142.94C691.468 142.94 689.644 144.908 689.644 147.668C689.644 150.5 691.468 152.42 694.132 152.42C695.596 152.42 696.964 151.82 697.78 150.884L698.668 151.724C697.684 152.804 695.98 153.62 694.036 153.62ZM702.33 139.364C701.706 139.364 701.25 138.908 701.25 138.308C701.25 137.708 701.706 137.252 702.33 137.252C702.93 137.252 703.386 137.708 703.386 138.308C703.386 138.908 702.93 139.364 702.33 139.364ZM701.658 153.5V141.836H702.93V153.5H701.658ZM711.343 140.108L714.223 136.772H715.807L712.831 140.108H711.343ZM712.135 153.62C708.559 153.62 706.207 150.98 706.207 147.692C706.207 144.38 708.559 141.716 712.135 141.716C715.495 141.716 718.039 144.14 718.039 147.692C718.039 151.196 715.495 153.62 712.135 153.62ZM712.111 152.42C714.679 152.42 716.743 150.5 716.743 147.692C716.743 144.836 714.679 142.916 712.111 142.916C709.327 142.916 707.503 145.052 707.503 147.692C707.503 150.284 709.351 152.42 712.111 152.42ZM726.987 141.716C729.315 141.716 730.923 143.108 730.923 146.588V153.5H729.651V146.756C729.651 143.708 728.331 142.916 726.699 142.916C724.131 142.916 722.427 144.812 722.427 147.716V153.5H721.155V141.836H722.427V144.116H722.451C723.435 142.58 725.091 141.716 726.987 141.716ZM735.329 153.62C734.729 153.62 734.249 153.164 734.249 152.564C734.249 151.964 734.729 151.508 735.329 151.508C735.929 151.508 736.409 151.964 736.409 152.564C736.409 153.164 735.929 153.62 735.329 153.62Z" fill="black"/>
<rect x="68" y="198.5" width="393" height="70" rx="8" fill="#FFBD2B"/>
<path d="M175.013 220.6C175.833 220.6 176.513 221.26 176.513 222.08C176.513 222.9 175.833 223.58 175.013 223.58C174.173 223.58 173.493 222.9 173.493 222.08C173.493 221.26 174.173 220.6 175.013 220.6ZM174.193 225.24H175.933L176.333 235.48H173.793L174.193 225.24ZM179.443 230.5V216.3H183.963C188.463 216.3 191.343 219.22 191.343 223.42C191.343 227.6 188.583 230.5 184.023 230.5H179.443ZM181.863 228.34H183.883C186.883 228.34 188.843 226.24 188.843 223.42C188.843 220.54 186.863 218.46 184.003 218.46H181.863V228.34ZM195.15 219.3C194.31 219.3 193.65 218.62 193.65 217.8C193.65 217 194.31 216.32 195.15 216.32C195.99 216.32 196.67 217 196.67 217.8C196.67 218.62 195.99 219.3 195.15 219.3ZM194.03 230.5V220.74H196.27V230.5H194.03ZM202.459 230.66C200.879 230.66 199.539 230.14 198.519 229.24L199.639 227.56C200.419 228.32 201.259 228.7 202.459 228.7C203.319 228.7 203.819 228.32 203.819 227.74C203.819 227.24 203.179 227 201.899 226.56C200.299 226 198.919 225.28 198.919 223.36C198.919 221.76 200.359 220.6 202.359 220.6C203.599 220.6 204.719 220.94 205.799 221.82L204.679 223.58C203.899 222.84 202.999 222.54 202.239 222.54C201.799 222.54 201.179 222.78 201.179 223.38C201.179 223.86 201.779 224.2 202.719 224.56C204.799 225.38 206.099 225.76 206.099 227.7C206.099 229.34 204.939 230.66 202.459 230.66ZM217.165 225.5C217.165 225.86 217.125 226.22 217.105 226.4H209.985C210.285 227.78 211.325 228.62 212.765 228.62C213.905 228.62 214.705 228.1 215.205 227.48L216.765 228.82C215.945 229.88 214.565 230.66 212.645 230.66C209.805 230.66 207.665 228.66 207.665 225.62C207.665 222.62 209.705 220.6 212.425 220.6C215.305 220.6 217.165 222.66 217.165 225.5ZM212.545 222.62C211.305 222.62 210.345 223.32 210.025 224.6H214.905C214.625 223.42 213.825 222.62 212.545 222.62ZM222.656 218.36C222.136 218.36 221.756 218.76 221.496 219.4L220.136 218.78C220.536 217.48 221.296 216.58 222.416 216.58C223.196 216.58 223.656 216.86 224.096 217.14C224.476 217.38 224.836 217.64 225.256 217.64C225.736 217.64 226.136 217.24 226.396 216.6L227.756 217.06C227.356 218.52 226.556 219.44 225.536 219.44C224.816 219.44 224.256 219.1 223.776 218.8C223.396 218.56 223.036 218.36 222.656 218.36ZM225.016 220.6C227.156 220.6 228.596 221.82 228.596 224.76V230.5H226.356V225.34C226.356 223.28 225.576 222.62 224.236 222.62C222.716 222.62 221.716 223.68 221.716 225.6V230.5H219.476V220.74H221.716V222.1H221.736C222.556 221.12 223.756 220.6 225.016 220.6ZM238.491 220.74H240.731V230.5H238.591V229.2H238.551C237.851 230.14 236.791 230.66 235.451 230.66C232.751 230.66 230.731 228.68 230.731 225.66C230.731 222.72 232.751 220.6 235.431 220.6C236.671 220.6 237.731 221.06 238.451 221.92H238.491V220.74ZM235.811 228.62C237.331 228.62 238.591 227.44 238.591 225.68C238.591 223.94 237.411 222.62 235.811 222.62C234.251 222.62 233.011 223.8 233.011 225.68C233.011 227.4 234.151 228.62 235.811 228.62ZM251.809 230.66C250.129 230.66 249.089 229.6 249.089 227.42V222.64H247.889V220.74H249.089V217.5L251.329 217.26V220.74H254.189V222.64H251.329V227.2C251.329 228.2 251.629 228.56 252.269 228.56C252.649 228.56 253.189 228.42 253.709 228.14L254.289 230.08C253.709 230.4 253.089 230.66 251.809 230.66ZM262.694 220.74H264.934V230.5H262.694V229.22C261.914 230.16 260.814 230.66 259.674 230.66C257.514 230.66 256.014 229.58 256.014 226.68V220.74H258.254V226.08C258.254 228.02 258.854 228.62 260.194 228.62C261.494 228.62 262.694 227.52 262.694 225.42V220.74ZM278.488 220.6C281.188 220.6 283.208 222.72 283.208 225.66C283.208 228.68 281.188 230.66 278.468 230.66C277.148 230.66 276.108 230.18 275.388 229.3H275.368V234.46H273.128V220.74H275.368V221.94C276.108 221.06 277.188 220.6 278.488 220.6ZM278.128 228.62C279.768 228.62 280.928 227.4 280.928 225.68C280.928 223.8 279.668 222.62 278.108 222.62C276.428 222.62 275.268 223.94 275.268 225.68C275.268 227.44 276.528 228.62 278.128 228.62ZM290.85 220.6H291.13V223.1C290.87 223.08 290.61 223.06 290.45 223.06C288.75 223.06 287.79 224.28 287.79 225.88V230.5H285.55V220.74H287.79V222.22H287.81C288.57 221.18 289.67 220.6 290.85 220.6ZM297.258 230.66C294.178 230.66 292.138 228.5 292.138 225.64C292.138 222.76 294.178 220.6 297.258 220.6C300.258 220.6 302.378 222.64 302.378 225.64C302.378 228.6 300.258 230.66 297.258 230.66ZM297.258 228.62C298.838 228.62 300.098 227.4 300.098 225.64C300.098 223.84 298.858 222.62 297.258 222.62C295.558 222.62 294.418 223.94 294.418 225.64C294.418 227.3 295.578 228.62 297.258 228.62ZM311.97 215.78H314.19V230.5H312.05V229.2H312.01C311.29 230.14 310.23 230.66 308.85 230.66C306.15 230.66 304.11 228.68 304.11 225.66C304.11 222.72 306.15 220.6 308.83 220.6C310.11 220.6 311.19 221.06 311.93 221.92H311.97V215.78ZM309.19 228.62C310.79 228.62 312.05 227.44 312.05 225.68C312.05 223.94 310.89 222.62 309.21 222.62C307.65 222.62 306.39 223.8 306.39 225.68C306.39 227.4 307.55 228.62 309.19 228.62ZM323.592 220.74H325.832V230.5H323.592V229.22C322.812 230.16 321.712 230.66 320.572 230.66C318.412 230.66 316.912 229.58 316.912 226.68V220.74H319.152V226.08C319.152 228.02 319.752 228.62 321.092 228.62C322.392 228.62 323.592 227.52 323.592 225.42V220.74ZM333.075 230.66C330.195 230.66 328.095 228.62 328.095 225.64C328.095 222.64 330.195 220.6 333.155 220.6C334.675 220.6 336.275 221.22 337.255 222.42L335.735 223.74C335.175 223.08 334.335 222.62 333.275 222.62C331.535 222.62 330.375 223.84 330.375 225.62C330.375 227.42 331.555 228.62 333.275 228.62C334.355 228.62 335.235 228.14 335.755 227.58L337.295 228.94C336.455 229.9 334.955 230.66 333.075 230.66ZM342.219 230.66C340.539 230.66 339.499 229.6 339.499 227.42V222.64H338.299V220.74H339.499V217.5L341.739 217.26V220.74H344.599V222.64H341.739V227.2C341.739 228.2 342.039 228.56 342.679 228.56C343.059 228.56 343.599 228.42 344.119 228.14L344.699 230.08C344.119 230.4 343.499 230.66 342.219 230.66ZM350.695 230.66C347.615 230.66 345.575 228.5 345.575 225.64C345.575 222.76 347.615 220.6 350.695 220.6C353.695 220.6 355.815 222.64 355.815 225.64C355.815 228.6 353.695 230.66 350.695 230.66ZM350.695 228.62C352.275 228.62 353.535 227.4 353.535 225.64C353.535 223.84 352.295 222.62 350.695 222.62C348.995 222.62 347.855 223.94 347.855 225.64C347.855 227.3 349.015 228.62 350.695 228.62ZM171.652 241.6C174.352 241.6 176.372 243.72 176.372 246.66C176.372 249.68 174.352 251.66 171.632 251.66C170.312 251.66 169.272 251.18 168.552 250.3H168.532V255.46H166.292V241.74H168.532V242.94C169.272 242.06 170.352 241.6 171.652 241.6ZM171.292 249.62C172.932 249.62 174.092 248.4 174.092 246.68C174.092 244.8 172.832 243.62 171.272 243.62C169.592 243.62 168.432 244.94 168.432 246.68C168.432 248.44 169.692 249.62 171.292 249.62ZM187.634 246.5C187.634 246.86 187.594 247.22 187.574 247.4H180.454C180.754 248.78 181.794 249.62 183.234 249.62C184.374 249.62 185.174 249.1 185.674 248.48L187.234 249.82C186.414 250.88 185.034 251.66 183.114 251.66C180.274 251.66 178.134 249.66 178.134 246.62C178.134 243.62 180.174 241.6 182.894 241.6C185.774 241.6 187.634 243.66 187.634 246.5ZM183.014 243.62C181.774 243.62 180.814 244.32 180.494 245.6H185.374C185.094 244.42 184.294 243.62 183.014 243.62ZM195.244 241.6H195.524V244.1C195.264 244.08 195.004 244.06 194.844 244.06C193.144 244.06 192.184 245.28 192.184 246.88V251.5H189.944V241.74H192.184V243.22H192.204C192.964 242.18 194.064 241.6 195.244 241.6ZM200.506 251.66C198.926 251.66 197.586 251.14 196.566 250.24L197.686 248.56C198.466 249.32 199.306 249.7 200.506 249.7C201.366 249.7 201.866 249.32 201.866 248.74C201.866 248.24 201.226 248 199.946 247.56C198.346 247 196.966 246.28 196.966 244.36C196.966 242.76 198.406 241.6 200.406 241.6C201.646 241.6 202.766 241.94 203.846 242.82L202.726 244.58C201.946 243.84 201.046 243.54 200.286 243.54C199.846 243.54 199.226 243.78 199.226 244.38C199.226 244.86 199.826 245.2 200.766 245.56C202.846 246.38 204.146 246.76 204.146 248.7C204.146 250.34 202.986 251.66 200.506 251.66ZM210.832 251.66C207.752 251.66 205.712 249.5 205.712 246.64C205.712 243.76 207.752 241.6 210.832 241.6C213.832 241.6 215.952 243.64 215.952 246.64C215.952 249.6 213.832 251.66 210.832 251.66ZM210.832 249.62C212.412 249.62 213.672 248.4 213.672 246.64C213.672 244.84 212.432 243.62 210.832 243.62C209.132 243.62 207.992 244.94 207.992 246.64C207.992 248.3 209.152 249.62 210.832 249.62ZM223.824 241.6C225.964 241.6 227.404 242.82 227.404 245.76V251.5H225.164V246.34C225.164 244.28 224.384 243.62 223.044 243.62C221.524 243.62 220.524 244.68 220.524 246.6V251.5H218.284V241.74H220.524V243.1H220.544C221.364 242.12 222.564 241.6 223.824 241.6ZM237.3 241.74H239.54V251.5H237.4V250.2H237.36C236.66 251.14 235.6 251.66 234.26 251.66C231.56 251.66 229.54 249.68 229.54 246.66C229.54 243.72 231.56 241.6 234.24 241.6C235.48 241.6 236.54 242.06 237.26 242.92H237.3V241.74ZM234.62 249.62C236.14 249.62 237.4 248.44 237.4 246.68C237.4 244.94 236.22 243.62 234.62 243.62C233.06 243.62 231.82 244.8 231.82 246.68C231.82 248.4 232.96 249.62 234.62 249.62ZM242.506 251.5V236.78H244.746V251.5H242.506ZM249.075 240.3C248.235 240.3 247.575 239.62 247.575 238.8C247.575 238 248.235 237.32 249.075 237.32C249.915 237.32 250.595 238 250.595 238.8C250.595 239.62 249.915 240.3 249.075 240.3ZM247.955 251.5V241.74H250.195V251.5H247.955ZM260.705 243.28L255.605 249.58V249.6H260.625V251.5H252.605V249.92L257.625 243.7V243.64H252.945V241.74H260.705V243.28ZM269.858 241.74H272.098V251.5H269.958V250.2H269.918C269.218 251.14 268.158 251.66 266.818 251.66C264.118 251.66 262.098 249.68 262.098 246.66C262.098 243.72 264.118 241.6 266.798 241.6C268.038 241.6 269.098 242.06 269.818 242.92H269.858V241.74ZM267.178 249.62C268.698 249.62 269.958 248.44 269.958 246.68C269.958 244.94 268.778 243.62 267.178 243.62C265.618 243.62 264.378 244.8 264.378 246.68C264.378 248.4 265.518 249.62 267.178 249.62ZM282.185 236.78H284.405V251.5H282.265V250.2H282.225C281.505 251.14 280.445 251.66 279.065 251.66C276.365 251.66 274.325 249.68 274.325 246.66C274.325 243.72 276.365 241.6 279.045 241.6C280.325 241.6 281.405 242.06 282.145 242.92H282.185V236.78ZM279.405 249.62C281.005 249.62 282.265 248.44 282.265 246.68C282.265 244.94 281.105 243.62 279.425 243.62C277.865 243.62 276.605 244.8 276.605 246.68C276.605 248.4 277.765 249.62 279.405 249.62ZM291.867 251.66C288.787 251.66 286.747 249.5 286.747 246.64C286.747 243.76 288.787 241.6 291.867 241.6C294.867 241.6 296.987 243.64 296.987 246.64C296.987 249.6 294.867 251.66 291.867 251.66ZM291.867 249.62C293.447 249.62 294.707 248.4 294.707 246.64C294.707 244.84 293.467 243.62 291.867 243.62C290.167 243.62 289.027 244.94 289.027 246.64C289.027 248.3 290.187 249.62 291.867 249.62ZM311.831 241.74H314.071V251.5H311.931V250.2H311.891C311.191 251.14 310.131 251.66 308.791 251.66C306.091 251.66 304.071 249.68 304.071 246.66C304.071 243.72 306.091 241.6 308.771 241.6C310.011 241.6 311.071 242.06 311.791 242.92H311.831V241.74ZM309.151 249.62C310.671 249.62 311.931 248.44 311.931 246.68C311.931 244.94 310.751 243.62 309.151 243.62C307.591 243.62 306.351 244.8 306.351 246.68C306.351 248.4 307.491 249.62 309.151 249.62ZM322.478 241.6C324.618 241.6 326.118 242.74 326.118 245.66V251.5H323.878V246.24C323.878 244.3 323.098 243.62 321.758 243.62C320.138 243.62 319.138 244.62 319.138 246.54V251.5H316.898V236.78H319.138V242.98H319.158C319.978 242.06 321.158 241.6 322.478 241.6ZM333.391 251.66C330.311 251.66 328.271 249.5 328.271 246.64C328.271 243.76 330.311 241.6 333.391 241.6C336.391 241.6 338.511 243.64 338.511 246.64C338.511 249.6 336.391 251.66 333.391 251.66ZM333.391 249.62C334.971 249.62 336.231 248.4 336.231 246.64C336.231 244.84 334.991 243.62 333.391 243.62C331.691 243.62 330.551 244.94 330.551 246.64C330.551 248.3 331.711 249.62 333.391 249.62ZM346.143 241.6H346.423V244.1C346.163 244.08 345.903 244.06 345.743 244.06C344.043 244.06 343.083 245.28 343.083 246.88V251.5H340.843V241.74H343.083V243.22H343.103C343.863 242.18 344.963 241.6 346.143 241.6ZM355.171 241.74H357.411V251.5H355.271V250.2H355.231C354.531 251.14 353.471 251.66 352.131 251.66C349.431 251.66 347.411 249.68 347.411 246.66C347.411 243.72 349.431 241.6 352.111 241.6C353.351 241.6 354.411 242.06 355.131 242.92H355.171V241.74ZM352.491 249.62C354.011 249.62 355.271 248.44 355.271 246.68C355.271 244.94 354.091 243.62 352.491 243.62C350.931 243.62 349.691 244.8 349.691 246.68C349.691 248.4 350.831 249.62 352.491 249.62ZM360.657 247.02L360.257 236.78H362.797L362.397 247.02H360.657ZM361.477 251.66C360.637 251.66 359.957 251 359.957 250.18C359.957 249.36 360.637 248.68 361.477 248.68C362.297 248.68 362.977 249.36 362.977 250.18C362.977 251 362.297 251.66 361.477 251.66Z" fill="#000929"/>
<rect x="492" y="198.5" width="377" height="70" rx="8" fill="#FFBD2B"/>
<path d="M559.618 219.6C560.438 219.6 561.118 220.26 561.118 221.08C561.118 221.9 560.438 222.58 559.618 222.58C558.778 222.58 558.098 221.9 558.098 221.08C558.098 220.26 558.778 219.6 559.618 219.6ZM558.798 224.24H560.538L560.938 234.48H558.398L558.798 224.24ZM568.289 229.66C566.469 229.66 564.629 228.96 563.149 227.42L564.669 225.56C565.689 226.8 567.089 227.42 568.309 227.42C569.869 227.42 570.669 226.74 570.669 225.7C570.669 224.46 569.729 224.06 567.929 223.42C565.769 222.66 563.629 221.7 563.629 219.1C563.629 216.88 565.669 215.14 568.129 215.14C569.809 215.12 571.389 215.74 572.829 216.88L571.389 218.78C570.229 217.82 569.089 217.32 568.129 217.32C567.029 217.32 566.149 217.92 566.129 218.98C566.109 220.02 567.069 220.38 568.789 221.04C571.229 222 573.189 222.66 573.189 225.4C573.189 228.34 570.569 229.66 568.289 229.66ZM580.125 229.66C577.045 229.66 575.005 227.5 575.005 224.64C575.005 221.76 577.045 219.6 580.125 219.6C583.125 219.6 585.245 221.64 585.245 224.64C585.245 227.6 583.125 229.66 580.125 229.66ZM580.125 227.62C581.705 227.62 582.965 226.4 582.965 224.64C582.965 222.84 581.725 221.62 580.125 221.62C578.425 221.62 577.285 222.94 577.285 224.64C577.285 226.3 578.445 227.62 580.125 227.62ZM587.717 229.5V214.78H589.957V229.5H587.717ZM594.286 218.3C593.446 218.3 592.786 217.62 592.786 216.8C592.786 216 593.446 215.32 594.286 215.32C595.126 215.32 595.806 216 595.806 216.8C595.806 217.62 595.126 218.3 594.286 218.3ZM593.166 229.5V219.74H595.406V229.5H593.166ZM602.876 229.66C599.996 229.66 597.896 227.62 597.896 224.64C597.896 221.64 599.996 219.6 602.956 219.6C604.476 219.6 606.076 220.22 607.056 221.42L605.536 222.74C604.976 222.08 604.136 221.62 603.076 221.62C601.336 221.62 600.176 222.84 600.176 224.62C600.176 226.42 601.356 227.62 603.076 227.62C604.156 227.62 605.036 227.14 605.556 226.58L607.096 227.94C606.256 228.9 604.756 229.66 602.876 229.66ZM610.38 218.3C609.54 218.3 608.88 217.62 608.88 216.8C608.88 216 609.54 215.32 610.38 215.32C611.22 215.32 611.9 216 611.9 216.8C611.9 217.62 611.22 218.3 610.38 218.3ZM609.26 229.5V219.74H611.5V229.5H609.26ZM617.391 229.66C615.711 229.66 614.671 228.6 614.671 226.42V221.64H613.471V219.74H614.671V216.5L616.911 216.26V219.74H619.771V221.64H616.911V226.2C616.911 227.2 617.211 227.56 617.851 227.56C618.231 227.56 618.771 227.42 619.291 227.14L619.871 229.08C619.291 229.4 618.671 229.66 617.391 229.66ZM628.526 219.74H630.766V229.5H628.626V228.2H628.586C627.886 229.14 626.826 229.66 625.486 229.66C622.786 229.66 620.766 227.68 620.766 224.66C620.766 221.72 622.786 219.6 625.466 219.6C626.706 219.6 627.766 220.06 628.486 220.92H628.526V219.74ZM625.846 227.62C627.366 227.62 628.626 226.44 628.626 224.68C628.626 222.94 627.446 221.62 625.846 221.62C624.286 221.62 623.046 222.8 623.046 224.68C623.046 226.4 624.186 227.62 625.846 227.62ZM641.844 229.66C640.164 229.66 639.124 228.6 639.124 226.42V221.64H637.924V219.74H639.124V216.5L641.364 216.26V219.74H644.224V221.64H641.364V226.2C641.364 227.2 641.664 227.56 642.304 227.56C642.684 227.56 643.224 227.42 643.744 227.14L644.324 229.08C643.744 229.4 643.124 229.66 641.844 229.66ZM652.729 219.74H654.969V229.5H652.729V228.22C651.949 229.16 650.849 229.66 649.709 229.66C647.549 229.66 646.049 228.58 646.049 225.68V219.74H648.289V225.08C648.289 227.02 648.889 227.62 650.229 227.62C651.529 227.62 652.729 226.52 652.729 224.42V219.74ZM668.523 219.6C671.223 219.6 673.243 221.72 673.243 224.66C673.243 227.68 671.223 229.66 668.503 229.66C667.183 229.66 666.143 229.18 665.423 228.3H665.403V233.46H663.163V219.74H665.403V220.94C666.143 220.06 667.223 219.6 668.523 219.6ZM668.163 227.62C669.803 227.62 670.963 226.4 670.963 224.68C670.963 222.8 669.703 221.62 668.143 221.62C666.463 221.62 665.303 222.94 665.303 224.68C665.303 226.44 666.563 227.62 668.163 227.62ZM680.885 219.6H681.165V222.1C680.905 222.08 680.645 222.06 680.485 222.06C678.785 222.06 677.825 223.28 677.825 224.88V229.5H675.585V219.74H677.825V221.22H677.845C678.605 220.18 679.705 219.6 680.885 219.6ZM691.673 224.5C691.673 224.86 691.633 225.22 691.613 225.4H684.493C684.793 226.78 685.833 227.62 687.273 227.62C688.413 227.62 689.213 227.1 689.713 226.48L691.273 227.82C690.453 228.88 689.073 229.66 687.153 229.66C684.313 229.66 682.173 227.66 682.173 224.62C682.173 221.62 684.213 219.6 686.933 219.6C689.813 219.6 691.673 221.66 691.673 224.5ZM687.053 221.62C685.813 221.62 684.853 222.32 684.533 223.6H689.413C689.133 222.42 688.333 221.62 687.053 221.62ZM697.103 229.66C695.523 229.66 694.183 229.14 693.163 228.24L694.283 226.56C695.063 227.32 695.903 227.7 697.103 227.7C697.963 227.7 698.463 227.32 698.463 226.74C698.463 226.24 697.823 226 696.543 225.56C694.943 225 693.563 224.28 693.563 222.36C693.563 220.76 695.003 219.6 697.003 219.6C698.243 219.6 699.363 219.94 700.443 220.82L699.323 222.58C698.543 221.84 697.643 221.54 696.883 221.54C696.443 221.54 695.823 221.78 695.823 222.38C695.823 222.86 696.423 223.2 697.363 223.56C699.443 224.38 700.743 224.76 700.743 226.7C700.743 228.34 699.583 229.66 697.103 229.66ZM709.448 219.74H711.688V229.5H709.448V228.22C708.668 229.16 707.568 229.66 706.428 229.66C704.268 229.66 702.768 228.58 702.768 225.68V219.74H705.008V225.08C705.008 227.02 705.608 227.62 706.948 227.62C708.248 227.62 709.448 226.52 709.448 224.42V219.74ZM719.89 219.6C722.59 219.6 724.61 221.72 724.61 224.66C724.61 227.68 722.59 229.66 719.87 229.66C718.55 229.66 717.51 229.18 716.79 228.3H716.77V233.46H714.53V219.74H716.77V220.94C717.51 220.06 718.59 219.6 719.89 219.6ZM719.53 227.62C721.17 227.62 722.33 226.4 722.33 224.68C722.33 222.8 721.07 221.62 719.51 221.62C717.83 221.62 716.67 222.94 716.67 224.68C716.67 226.44 717.93 227.62 719.53 227.62ZM733.432 219.74H735.672V229.5H733.432V228.22C732.652 229.16 731.552 229.66 730.412 229.66C728.252 229.66 726.752 228.58 726.752 225.68V219.74H728.992V225.08C728.992 227.02 729.592 227.62 730.932 227.62C732.232 227.62 733.432 226.52 733.432 224.42V219.74ZM747.435 224.5C747.435 224.86 747.395 225.22 747.375 225.4H740.255C740.555 226.78 741.595 227.62 743.035 227.62C744.175 227.62 744.975 227.1 745.475 226.48L747.035 227.82C746.215 228.88 744.835 229.66 742.915 229.66C740.075 229.66 737.935 227.66 737.935 224.62C737.935 221.62 739.975 219.6 742.695 219.6C745.575 219.6 747.435 221.66 747.435 224.5ZM742.815 221.62C741.575 221.62 740.615 222.32 740.295 223.6H745.175C744.895 222.42 744.095 221.62 742.815 221.62ZM752.865 229.66C751.285 229.66 749.945 229.14 748.925 228.24L750.045 226.56C750.825 227.32 751.665 227.7 752.865 227.7C753.725 227.7 754.225 227.32 754.225 226.74C754.225 226.24 753.585 226 752.305 225.56C750.705 225 749.325 224.28 749.325 222.36C749.325 220.76 750.765 219.6 752.765 219.6C754.005 219.6 755.125 219.94 756.205 220.82L755.085 222.58C754.305 221.84 753.405 221.54 752.645 221.54C752.205 221.54 751.585 221.78 751.585 222.38C751.585 222.86 752.185 223.2 753.125 223.56C755.205 224.38 756.505 224.76 756.505 226.7C756.505 228.34 755.345 229.66 752.865 229.66ZM761.63 229.66C759.95 229.66 758.91 228.6 758.91 226.42V221.64H757.71V219.74H758.91V216.5L761.15 216.26V219.74H764.01V221.64H761.15V226.2C761.15 227.2 761.45 227.56 762.09 227.56C762.47 227.56 763.01 227.42 763.53 227.14L764.11 229.08C763.53 229.4 762.91 229.66 761.63 229.66ZM770.105 229.66C767.025 229.66 764.985 227.5 764.985 224.64C764.985 221.76 767.025 219.6 770.105 219.6C773.105 219.6 775.225 221.64 775.225 224.64C775.225 227.6 773.105 229.66 770.105 229.66ZM770.105 227.62C771.685 227.62 772.945 226.4 772.945 224.64C772.945 222.84 771.705 221.62 770.105 221.62C768.405 221.62 767.265 222.94 767.265 224.64C767.265 226.3 768.425 227.62 770.105 227.62ZM790.169 214.78H792.389V229.5H790.249V228.2H790.209C789.489 229.14 788.429 229.66 787.049 229.66C784.349 229.66 782.309 227.68 782.309 224.66C782.309 221.72 784.349 219.6 787.029 219.6C788.309 219.6 789.389 220.06 790.129 220.92H790.169V214.78ZM787.389 227.62C788.989 227.62 790.249 226.44 790.249 224.68C790.249 222.94 789.089 221.62 787.409 221.62C785.849 221.62 784.589 222.8 784.589 224.68C784.589 226.4 785.749 227.62 787.389 227.62ZM804.232 224.5C804.232 224.86 804.192 225.22 804.172 225.4H797.052C797.352 226.78 798.392 227.62 799.832 227.62C800.972 227.62 801.772 227.1 802.272 226.48L803.832 227.82C803.012 228.88 801.632 229.66 799.712 229.66C796.872 229.66 794.732 227.66 794.732 224.62C794.732 221.62 796.772 219.6 799.492 219.6C802.372 219.6 804.232 221.66 804.232 224.5ZM799.612 221.62C798.372 221.62 797.412 222.32 797.092 223.6H801.972C801.692 222.42 800.892 221.62 799.612 221.62ZM621.154 240.6C623.294 240.6 624.574 241.94 624.574 244.86V250.5H622.334V245.42C622.334 243.66 621.754 242.62 620.434 242.62C619.174 242.62 618.154 243.72 618.154 245.64V250.5H615.914V245.42C615.914 243.66 615.294 242.62 613.974 242.62C612.634 242.62 611.634 243.72 611.634 245.64V250.5H609.394V240.74H611.634V242.1H611.654C612.454 241.12 613.574 240.6 614.694 240.6C616.014 240.6 617.034 241.12 617.614 242.22H617.654C618.474 241.16 619.714 240.6 621.154 240.6ZM636.263 245.5C636.263 245.86 636.223 246.22 636.203 246.4H629.083C629.383 247.78 630.423 248.62 631.863 248.62C633.003 248.62 633.803 248.1 634.303 247.48L635.863 248.82C635.043 249.88 633.663 250.66 631.743 250.66C628.903 250.66 626.763 248.66 626.763 245.62C626.763 242.62 628.803 240.6 631.523 240.6C634.403 240.6 636.263 242.66 636.263 245.5ZM631.643 242.62C630.403 242.62 629.443 243.32 629.123 244.6H634.003C633.723 243.42 632.923 242.62 631.643 242.62ZM641.473 250.66C639.793 250.66 638.753 249.6 638.753 247.42V242.64H637.553V240.74H638.753V237.5L640.993 237.26V240.74H643.853V242.64H640.993V247.2C640.993 248.2 641.293 248.56 641.933 248.56C642.313 248.56 642.853 248.42 643.373 248.14L643.953 250.08C643.373 250.4 642.753 250.66 641.473 250.66ZM652.608 240.74H654.848V250.5H652.708V249.2H652.668C651.968 250.14 650.908 250.66 649.568 250.66C646.868 250.66 644.848 248.68 644.848 245.66C644.848 242.72 646.868 240.6 649.548 240.6C650.788 240.6 651.848 241.06 652.568 241.92H652.608V240.74ZM649.928 248.62C651.448 248.62 652.708 247.44 652.708 245.68C652.708 243.94 651.528 242.62 649.928 242.62C648.368 242.62 647.128 243.8 647.128 245.68C647.128 247.4 648.268 248.62 649.928 248.62ZM657.815 250.5V235.78H660.055V250.5H657.815ZM671.004 236.48L668.524 239.38H666.244L668.544 236.5L671.004 236.48ZM669.604 240.74H671.844V250.5H669.604V249.22C668.824 250.16 667.724 250.66 666.584 250.66C664.424 250.66 662.924 249.58 662.924 246.68V240.74H665.164V246.08C665.164 248.02 665.764 248.62 667.104 248.62C668.404 248.62 669.604 247.52 669.604 245.42V240.74ZM679.987 240.6H680.267V243.1C680.007 243.08 679.747 243.06 679.587 243.06C677.887 243.06 676.927 244.28 676.927 245.88V250.5H674.687V240.74H676.927V242.22H676.947C677.707 241.18 678.807 240.6 679.987 240.6ZM688.955 240.74H691.195V249.5C691.195 252.46 689.835 254.6 686.215 254.6C684.755 254.6 683.335 254.24 682.235 253.58L682.775 251.62C683.835 252.18 684.695 252.58 686.095 252.58C688.015 252.58 688.995 251.48 688.995 250.18V249.14H688.975C688.235 249.9 687.215 250.34 685.995 250.34C683.275 250.34 681.235 248.42 681.235 245.52C681.235 242.66 683.175 240.58 685.875 240.58C687.015 240.58 688.115 240.98 688.915 241.78H688.955V240.74ZM686.295 248.28C687.915 248.28 689.055 247.08 689.055 245.42C689.055 243.76 687.855 242.64 686.295 242.64C684.635 242.64 683.515 243.8 683.515 245.46C683.515 247.2 684.715 248.28 686.295 248.28ZM695.263 239.3C694.423 239.3 693.763 238.62 693.763 237.8C693.763 237 694.423 236.32 695.263 236.32C696.103 236.32 696.783 237 696.783 237.8C696.783 238.62 696.103 239.3 695.263 239.3ZM694.143 250.5V240.74H696.383V250.5H694.143ZM703.852 250.66C700.972 250.66 698.872 248.62 698.872 245.64C698.872 242.64 700.972 240.6 703.932 240.6C705.452 240.6 707.052 241.22 708.032 242.42L706.512 243.74C705.952 243.08 705.112 242.62 704.052 242.62C702.312 242.62 701.152 243.84 701.152 245.62C701.152 247.42 702.332 248.62 704.052 248.62C705.132 248.62 706.012 248.14 706.532 247.58L708.072 248.94C707.232 249.9 705.732 250.66 703.852 250.66ZM717.257 240.74H719.497V250.5H717.357V249.2H717.317C716.617 250.14 715.557 250.66 714.217 250.66C711.517 250.66 709.497 248.68 709.497 245.66C709.497 242.72 711.517 240.6 714.197 240.6C715.437 240.6 716.497 241.06 717.217 241.92H717.257V240.74ZM714.577 248.62C716.097 248.62 717.357 247.44 717.357 245.68C717.357 243.94 716.177 242.62 714.577 242.62C713.017 242.62 711.777 243.8 711.777 245.68C711.777 247.4 712.917 248.62 714.577 248.62ZM734.175 240.74H736.515L731.155 254.46H728.795L730.555 249.94L726.595 240.74H728.955L731.655 247.34L734.175 240.74ZM745.069 240.74H747.309V250.5H745.169V249.2H745.129C744.429 250.14 743.369 250.66 742.029 250.66C739.329 250.66 737.309 248.68 737.309 245.66C737.309 242.72 739.329 240.6 742.009 240.6C743.249 240.6 744.309 241.06 745.029 241.92H745.069V240.74ZM742.389 248.62C743.909 248.62 745.169 247.44 745.169 245.68C745.169 243.94 743.989 242.62 742.389 242.62C740.829 242.62 739.589 243.8 739.589 245.68C739.589 247.4 740.729 248.62 742.389 248.62ZM750.556 246.02L750.156 235.78H752.696L752.296 246.02H750.556ZM751.376 250.66C750.536 250.66 749.856 250 749.856 249.18C749.856 248.36 750.536 247.68 751.376 247.68C752.196 247.68 752.876 248.36 752.876 249.18C752.876 250 752.196 250.66 751.376 250.66Z" fill="#000929"/>
<rect x="900" y="198.5" width="385" height="70" rx="8" fill="#FFBD2B"/>
<path d="M1012.41 216.6C1013.23 216.6 1013.91 217.26 1013.91 218.08C1013.91 218.9 1013.23 219.58 1012.41 219.58C1011.57 219.58 1010.89 218.9 1010.89 218.08C1010.89 217.26 1011.57 216.6 1012.41 216.6ZM1011.59 221.24H1013.33L1013.73 231.48H1011.19L1011.59 221.24ZM1016.84 226.5V212.3H1019.26V218.64H1025.68V212.3H1028.08V226.5H1025.68V220.8H1019.26V226.5H1016.84ZM1038.45 216.74H1040.69V226.5H1038.55V225.2H1038.51C1037.81 226.14 1036.75 226.66 1035.41 226.66C1032.71 226.66 1030.69 224.68 1030.69 221.66C1030.69 218.72 1032.71 216.6 1035.39 216.6C1036.63 216.6 1037.69 217.06 1038.41 217.92H1038.45V216.74ZM1035.77 224.62C1037.29 224.62 1038.55 223.44 1038.55 221.68C1038.55 219.94 1037.37 218.62 1035.77 218.62C1034.21 218.62 1032.97 219.8 1032.97 221.68C1032.97 223.4 1034.11 224.62 1035.77 224.62ZM1050.95 218.28L1045.85 224.58V224.6H1050.87V226.5H1042.85V224.92L1047.87 218.7V218.64H1043.19V216.74H1050.95V218.28ZM1061.55 226.66C1059.87 226.66 1058.83 225.6 1058.83 223.42V218.64H1057.63V216.74H1058.83V213.5L1061.07 213.26V216.74H1063.93V218.64H1061.07V223.2C1061.07 224.2 1061.37 224.56 1062.01 224.56C1062.39 224.56 1062.93 224.42 1063.45 224.14L1064.03 226.08C1063.45 226.4 1062.83 226.66 1061.55 226.66ZM1072.43 216.74H1074.67V226.5H1072.43V225.22C1071.65 226.16 1070.55 226.66 1069.41 226.66C1067.25 226.66 1065.75 225.58 1065.75 222.68V216.74H1067.99V222.08C1067.99 224.02 1068.59 224.62 1069.93 224.62C1071.23 224.62 1072.43 223.52 1072.43 221.42V216.74ZM1088.23 216.6C1090.93 216.6 1092.95 218.72 1092.95 221.66C1092.95 224.68 1090.93 226.66 1088.21 226.66C1086.89 226.66 1085.85 226.18 1085.13 225.3H1085.11V230.46H1082.87V216.74H1085.11V217.94C1085.85 217.06 1086.93 216.6 1088.23 216.6ZM1087.87 224.62C1089.51 224.62 1090.67 223.4 1090.67 221.68C1090.67 219.8 1089.41 218.62 1087.85 218.62C1086.17 218.62 1085.01 219.94 1085.01 221.68C1085.01 223.44 1086.27 224.62 1087.87 224.62ZM1104.21 221.5C1104.21 221.86 1104.17 222.22 1104.15 222.4H1097.03C1097.33 223.78 1098.37 224.62 1099.81 224.62C1100.95 224.62 1101.75 224.1 1102.25 223.48L1103.81 224.82C1102.99 225.88 1101.61 226.66 1099.69 226.66C1096.85 226.66 1094.71 224.66 1094.71 221.62C1094.71 218.62 1096.75 216.6 1099.47 216.6C1102.35 216.6 1104.21 218.66 1104.21 221.5ZM1099.59 218.62C1098.35 218.62 1097.39 219.32 1097.07 220.6H1101.95C1101.67 219.42 1100.87 218.62 1099.59 218.62ZM1113.78 211.78H1116V226.5H1113.86V225.2H1113.82C1113.1 226.14 1112.04 226.66 1110.66 226.66C1107.96 226.66 1105.92 224.68 1105.92 221.66C1105.92 218.72 1107.96 216.6 1110.64 216.6C1111.92 216.6 1113 217.06 1113.74 217.92H1113.78V211.78ZM1111 224.62C1112.6 224.62 1113.86 223.44 1113.86 221.68C1113.86 219.94 1112.7 218.62 1111.02 218.62C1109.46 218.62 1108.2 219.8 1108.2 221.68C1108.2 223.4 1109.36 224.62 1111 224.62ZM1120.18 215.3C1119.34 215.3 1118.68 214.62 1118.68 213.8C1118.68 213 1119.34 212.32 1120.18 212.32C1121.02 212.32 1121.7 213 1121.7 213.8C1121.7 214.62 1121.02 215.3 1120.18 215.3ZM1119.06 226.5V216.74H1121.3V226.5H1119.06ZM1131.63 211.78H1133.85V226.5H1131.71V225.2H1131.67C1130.95 226.14 1129.89 226.66 1128.51 226.66C1125.81 226.66 1123.77 224.68 1123.77 221.66C1123.77 218.72 1125.81 216.6 1128.49 216.6C1129.77 216.6 1130.85 217.06 1131.59 217.92H1131.63V211.78ZM1128.85 224.62C1130.45 224.62 1131.71 223.44 1131.71 221.68C1131.71 219.94 1130.55 218.62 1128.87 218.62C1127.31 218.62 1126.05 219.8 1126.05 221.68C1126.05 223.4 1127.21 224.62 1128.85 224.62ZM1141.31 226.66C1138.23 226.66 1136.19 224.5 1136.19 221.64C1136.19 218.76 1138.23 216.6 1141.31 216.6C1144.31 216.6 1146.43 218.64 1146.43 221.64C1146.43 224.6 1144.31 226.66 1141.31 226.66ZM1141.31 224.62C1142.89 224.62 1144.15 223.4 1144.15 221.64C1144.15 219.84 1142.91 218.62 1141.31 218.62C1139.61 218.62 1138.47 219.94 1138.47 221.64C1138.47 223.3 1139.63 224.62 1141.31 224.62ZM1161.38 211.78H1163.6V226.5H1161.46V225.2H1161.42C1160.7 226.14 1159.64 226.66 1158.26 226.66C1155.56 226.66 1153.52 224.68 1153.52 221.66C1153.52 218.72 1155.56 216.6 1158.24 216.6C1159.52 216.6 1160.6 217.06 1161.34 217.92H1161.38V211.78ZM1158.6 224.62C1160.2 224.62 1161.46 223.44 1161.46 221.68C1161.46 219.94 1160.3 218.62 1158.62 218.62C1157.06 218.62 1155.8 219.8 1155.8 221.68C1155.8 223.4 1156.96 224.62 1158.6 224.62ZM1175.44 221.5C1175.44 221.86 1175.4 222.22 1175.38 222.4H1168.26C1168.56 223.78 1169.6 224.62 1171.04 224.62C1172.18 224.62 1172.98 224.1 1173.48 223.48L1175.04 224.82C1174.22 225.88 1172.84 226.66 1170.92 226.66C1168.08 226.66 1165.94 224.66 1165.94 221.62C1165.94 218.62 1167.98 216.6 1170.7 216.6C1173.58 216.6 1175.44 218.66 1175.44 221.5ZM1170.82 218.62C1169.58 218.62 1168.62 219.32 1168.3 220.6H1173.18C1172.9 219.42 1172.1 218.62 1170.82 218.62ZM998.451 237.6H998.731V240.1C998.471 240.08 998.211 240.06 998.051 240.06C996.351 240.06 995.391 241.28 995.391 242.88V247.5H993.151V237.74H995.391V239.22H995.411C996.171 238.18 997.271 237.6 998.451 237.6ZM1009.24 242.5C1009.24 242.86 1009.2 243.22 1009.18 243.4H1002.06C1002.36 244.78 1003.4 245.62 1004.84 245.62C1005.98 245.62 1006.78 245.1 1007.28 244.48L1008.84 245.82C1008.02 246.88 1006.64 247.66 1004.72 247.66C1001.88 247.66 999.739 245.66 999.739 242.62C999.739 239.62 1001.78 237.6 1004.5 237.6C1007.38 237.6 1009.24 239.66 1009.24 242.5ZM1004.62 239.62C1003.38 239.62 1002.42 240.32 1002.1 241.6H1006.98C1006.7 240.42 1005.9 239.62 1004.62 239.62ZM1016.91 237.6C1019.61 237.6 1021.63 239.72 1021.63 242.66C1021.63 245.68 1019.61 247.66 1016.89 247.66C1015.57 247.66 1014.53 247.18 1013.81 246.3H1013.79V251.46H1011.55V237.74H1013.79V238.94C1014.53 238.06 1015.61 237.6 1016.91 237.6ZM1016.55 245.62C1018.19 245.62 1019.35 244.4 1019.35 242.68C1019.35 240.8 1018.09 239.62 1016.53 239.62C1014.85 239.62 1013.69 240.94 1013.69 242.68C1013.69 244.44 1014.95 245.62 1016.55 245.62ZM1030.45 237.74H1032.69V247.5H1030.45V246.22C1029.67 247.16 1028.57 247.66 1027.43 247.66C1025.27 247.66 1023.77 246.58 1023.77 243.68V237.74H1026.01V243.08C1026.01 245.02 1026.61 245.62 1027.95 245.62C1029.25 245.62 1030.45 244.52 1030.45 242.42V237.74ZM1044.45 242.5C1044.45 242.86 1044.41 243.22 1044.39 243.4H1037.27C1037.57 244.78 1038.61 245.62 1040.05 245.62C1041.19 245.62 1041.99 245.1 1042.49 244.48L1044.05 245.82C1043.23 246.88 1041.85 247.66 1039.93 247.66C1037.09 247.66 1034.95 245.66 1034.95 242.62C1034.95 239.62 1036.99 237.6 1039.71 237.6C1042.59 237.6 1044.45 239.66 1044.45 242.5ZM1039.83 239.62C1038.59 239.62 1037.63 240.32 1037.31 241.6H1042.19C1041.91 240.42 1041.11 239.62 1039.83 239.62ZM1049.88 247.66C1048.3 247.66 1046.96 247.14 1045.94 246.24L1047.06 244.56C1047.84 245.32 1048.68 245.7 1049.88 245.7C1050.74 245.7 1051.24 245.32 1051.24 244.74C1051.24 244.24 1050.6 244 1049.32 243.56C1047.72 243 1046.34 242.28 1046.34 240.36C1046.34 238.76 1047.78 237.6 1049.78 237.6C1051.02 237.6 1052.14 237.94 1053.22 238.82L1052.1 240.58C1051.32 239.84 1050.42 239.54 1049.66 239.54C1049.22 239.54 1048.6 239.78 1048.6 240.38C1048.6 240.86 1049.2 241.2 1050.14 241.56C1052.22 242.38 1053.52 242.76 1053.52 244.7C1053.52 246.34 1052.36 247.66 1049.88 247.66ZM1058.65 247.66C1056.97 247.66 1055.93 246.6 1055.93 244.42V239.64H1054.73V237.74H1055.93V234.5L1058.17 234.26V237.74H1061.03V239.64H1058.17V244.2C1058.17 245.2 1058.47 245.56 1059.11 245.56C1059.49 245.56 1060.03 245.42 1060.55 245.14L1061.13 247.08C1060.55 247.4 1059.93 247.66 1058.65 247.66ZM1067.13 247.66C1064.05 247.66 1062.01 245.5 1062.01 242.64C1062.01 239.76 1064.05 237.6 1067.13 237.6C1070.13 237.6 1072.25 239.64 1072.25 242.64C1072.25 245.6 1070.13 247.66 1067.13 247.66ZM1067.13 245.62C1068.71 245.62 1069.97 244.4 1069.97 242.64C1069.97 240.84 1068.73 239.62 1067.13 239.62C1065.43 239.62 1064.29 240.94 1064.29 242.64C1064.29 244.3 1065.45 245.62 1067.13 245.62ZM1077.7 247.66C1076.12 247.66 1074.78 247.14 1073.76 246.24L1074.88 244.56C1075.66 245.32 1076.5 245.7 1077.7 245.7C1078.56 245.7 1079.06 245.32 1079.06 244.74C1079.06 244.24 1078.42 244 1077.14 243.56C1075.54 243 1074.16 242.28 1074.16 240.36C1074.16 238.76 1075.6 237.6 1077.6 237.6C1078.84 237.6 1079.96 237.94 1081.04 238.82L1079.92 240.58C1079.14 239.84 1078.24 239.54 1077.48 239.54C1077.04 239.54 1076.42 239.78 1076.42 240.38C1076.42 240.86 1077.02 241.2 1077.96 241.56C1080.04 242.38 1081.34 242.76 1081.34 244.7C1081.34 246.34 1080.18 247.66 1077.7 247.66ZM1094.49 237.6C1096.63 237.6 1098.13 238.74 1098.13 241.66V247.5H1095.89V242.24C1095.89 240.3 1095.11 239.62 1093.77 239.62C1092.15 239.62 1091.15 240.62 1091.15 242.54V247.5H1088.91V232.78H1091.15V238.98H1091.17C1091.99 238.06 1093.17 237.6 1094.49 237.6ZM1105.41 247.66C1102.33 247.66 1100.29 245.5 1100.29 242.64C1100.29 239.76 1102.33 237.6 1105.41 237.6C1108.41 237.6 1110.53 239.64 1110.53 242.64C1110.53 245.6 1108.41 247.66 1105.41 247.66ZM1105.41 245.62C1106.99 245.62 1108.25 244.4 1108.25 242.64C1108.25 240.84 1107.01 239.62 1105.41 239.62C1103.71 239.62 1102.57 240.94 1102.57 242.64C1102.57 244.3 1103.73 245.62 1105.41 245.62ZM1118.67 237.74H1121.01L1115.65 251.46H1113.29L1115.05 246.94L1111.09 237.74H1113.45L1116.15 244.34L1118.67 237.74ZM1139.99 237.6C1142.13 237.6 1143.41 238.94 1143.41 241.86V247.5H1141.17V242.42C1141.17 240.66 1140.59 239.62 1139.27 239.62C1138.01 239.62 1136.99 240.72 1136.99 242.64V247.5H1134.75V242.42C1134.75 240.66 1134.13 239.62 1132.81 239.62C1131.47 239.62 1130.47 240.72 1130.47 242.64V247.5H1128.23V237.74H1130.47V239.1H1130.49C1131.29 238.12 1132.41 237.6 1133.53 237.6C1134.85 237.6 1135.87 238.12 1136.45 239.22H1136.49C1137.31 238.16 1138.55 237.6 1139.99 237.6ZM1147.44 236.3C1146.6 236.3 1145.94 235.62 1145.94 234.8C1145.94 234 1146.6 233.32 1147.44 233.32C1148.28 233.32 1148.96 234 1148.96 234.8C1148.96 235.62 1148.28 236.3 1147.44 236.3ZM1146.32 247.5V237.74H1148.56V247.5H1146.32ZM1154.75 247.66C1153.17 247.66 1151.83 247.14 1150.81 246.24L1151.93 244.56C1152.71 245.32 1153.55 245.7 1154.75 245.7C1155.61 245.7 1156.11 245.32 1156.11 244.74C1156.11 244.24 1155.47 244 1154.19 243.56C1152.59 243 1151.21 242.28 1151.21 240.36C1151.21 238.76 1152.65 237.6 1154.65 237.6C1155.89 237.6 1157.01 237.94 1158.09 238.82L1156.97 240.58C1156.19 239.84 1155.29 239.54 1154.53 239.54C1154.09 239.54 1153.47 239.78 1153.47 240.38C1153.47 240.86 1154.07 241.2 1155.01 241.56C1157.09 242.38 1158.39 242.76 1158.39 244.7C1158.39 246.34 1157.23 247.66 1154.75 247.66ZM1172.37 237.6C1174.51 237.6 1175.79 238.94 1175.79 241.86V247.5H1173.55V242.42C1173.55 240.66 1172.97 239.62 1171.65 239.62C1170.39 239.62 1169.37 240.72 1169.37 242.64V247.5H1167.13V242.42C1167.13 240.66 1166.51 239.62 1165.19 239.62C1163.85 239.62 1162.85 240.72 1162.85 242.64V247.5H1160.61V237.74H1162.85V239.1H1162.87C1163.67 238.12 1164.79 237.6 1165.91 237.6C1167.23 237.6 1168.25 238.12 1168.83 239.22H1168.87C1169.69 238.16 1170.93 237.6 1172.37 237.6ZM1183.1 247.66C1180.02 247.66 1177.98 245.5 1177.98 242.64C1177.98 239.76 1180.02 237.6 1183.1 237.6C1186.1 237.6 1188.22 239.64 1188.22 242.64C1188.22 245.6 1186.1 247.66 1183.1 247.66ZM1183.1 245.62C1184.68 245.62 1185.94 244.4 1185.94 242.64C1185.94 240.84 1184.7 239.62 1183.1 239.62C1181.4 239.62 1180.26 240.94 1180.26 242.64C1180.26 244.3 1181.42 245.62 1183.1 245.62ZM1190.8 243.02L1190.4 232.78H1192.94L1192.54 243.02H1190.8ZM1191.62 247.66C1190.78 247.66 1190.1 247 1190.1 246.18C1190.1 245.36 1190.78 244.68 1191.62 244.68C1192.44 244.68 1193.12 245.36 1193.12 246.18C1193.12 247 1192.44 247.66 1191.62 247.66Z" fill="#000929"/>
</svg>
