<svg width="59" height="54" viewBox="0 0 59 54" fill="none" xmlns="http://www.w3.org/2000/svg">
<path d="M21.1642 53.7156C19.3098 53.7156 17.6469 53.2318 16.1755 52.2643C14.7041 51.2968 13.5652 49.9665 12.759 48.2734C12.114 49.1199 11.2976 49.775 10.31 50.2386C9.32231 50.7022 8.30442 50.934 7.25629 50.934C5.20034 50.934 3.47697 50.2285 2.08618 48.8176C0.695394 47.4066 0 45.6933 0 43.6777C0 41.9443 0.564378 40.3821 1.69313 38.9914C2.82189 37.6006 4.25299 36.8044 5.98644 36.6028C5.42206 35.7966 4.9887 34.9399 4.68635 34.0329C4.38401 33.1259 4.23283 32.1684 4.23283 31.1606C4.23283 29.5481 4.64604 28.0364 5.47245 26.6254C6.29886 25.2145 7.45785 24.0656 8.94942 23.1787C9.15098 23.9043 9.42309 24.6804 9.76575 25.5068C10.1084 26.3332 10.5015 27.0487 10.9449 27.6534C10.3805 28.0969 9.93708 28.631 9.61458 29.2558C9.29208 29.8807 9.13083 30.5358 9.13083 31.2211C9.13083 33.4786 10.058 34.8694 11.9124 35.3935C13.7668 35.9175 15.5204 36.3408 17.1732 36.6633L18.3221 38.5983C17.8787 39.8883 17.4957 40.9868 17.1732 41.8939C16.8507 42.8009 16.6895 43.6172 16.6895 44.3429C16.6895 45.5523 17.1228 46.6105 17.9895 47.5175C18.8563 48.4245 19.9145 48.8781 21.1642 48.8781C22.6961 48.8781 23.9659 48.1927 24.9737 46.8221C25.9815 45.4515 26.8079 43.839 27.453 41.9846C28.098 40.1302 28.5918 38.2557 28.9344 36.361C29.2771 34.4663 29.5492 33.015 29.7508 32.0072L34.4674 33.277C34.1045 35.0911 33.6611 37.1672 33.137 39.5053C32.613 41.8435 31.8773 44.0708 30.9299 46.1872C29.9826 48.3036 28.7329 50.0874 27.1808 51.5387C25.6288 52.9899 23.6232 53.7156 21.1642 53.7156ZM7.25629 46.0965C7.9416 46.0965 8.51606 45.8647 8.97966 45.4011C9.44325 44.9375 9.67505 44.363 9.67505 43.6777C9.67505 42.9924 9.44325 42.4179 8.97966 41.9543C8.51606 41.4907 7.9416 41.259 7.25629 41.259C6.57097 41.259 5.99651 41.4907 5.53292 41.9543C5.06932 42.4179 4.83752 42.9924 4.83752 43.6777C4.83752 44.363 5.06932 44.9375 5.53292 45.4011C5.99651 45.8647 6.57097 46.0965 7.25629 46.0965ZM24.4295 36.5424C22.5751 34.8895 20.8921 33.3476 19.3803 31.9165C17.8686 30.4854 16.5685 29.0946 15.4801 27.7441C14.3916 26.3936 13.5551 25.0432 12.9706 23.6927C12.3861 22.3422 12.0938 20.9413 12.0938 19.4901C12.0938 16.8698 12.9908 14.6626 14.7847 12.8687C16.5786 11.0748 18.7857 10.1779 21.406 10.1779C21.5673 10.1779 21.7084 10.1879 21.8293 10.2081C21.9503 10.2282 22.0914 10.2383 22.2526 10.2383C22.0914 9.8352 21.9704 9.43207 21.8898 9.02894C21.8092 8.62582 21.7689 8.20253 21.7689 7.75909C21.7689 5.74346 22.4743 4.03017 23.8853 2.61922C25.2962 1.20828 27.0095 0.502808 29.0251 0.502808C31.0408 0.502808 32.7541 1.20828 34.165 2.61922C35.576 4.03017 36.2814 5.74346 36.2814 7.75909C36.2814 8.20253 36.2411 8.61574 36.1605 8.99871C36.0799 9.38168 35.9589 9.77473 35.7977 10.1779H36.6442C39.063 10.1779 41.119 10.9539 42.8121 12.5059C44.5052 14.058 45.513 15.9829 45.8355 18.2807C45.1099 18.1598 44.2936 18.0993 43.3865 18.0993C42.4795 18.0993 41.643 18.1396 40.8771 18.2202C40.5949 17.293 40.0809 16.5271 39.3351 15.9224C38.5893 15.3177 37.6924 15.0154 36.6442 15.0154C35.2333 15.0154 34.1348 15.4286 33.3487 16.255C32.5626 17.0814 31.4842 18.2807 30.1136 19.8529H27.8762C26.4653 18.2001 25.3668 16.9806 24.5807 16.1945C23.7946 15.4084 22.7364 15.0154 21.406 15.0154C20.116 15.0154 19.0478 15.4387 18.2012 16.2852C17.3546 17.1318 16.9313 18.2001 16.9313 19.4901C16.9313 20.4173 17.1934 21.3747 17.7174 22.3624C18.2415 23.35 18.9772 24.3982 19.9246 25.5068C20.8719 26.6154 22.0208 27.7945 23.3713 29.0442C24.7218 30.2939 26.2234 31.6444 27.8762 33.0956L24.4295 36.5424ZM29.0251 10.1779C29.7105 10.1779 30.2849 9.94606 30.7485 9.48246C31.2121 9.01887 31.4439 8.44441 31.4439 7.75909C31.4439 7.07378 31.2121 6.49932 30.7485 6.03573C30.2849 5.57213 29.7105 5.34033 29.0251 5.34033C28.3398 5.34033 27.7654 5.57213 27.3018 6.03573C26.8382 6.49932 26.6064 7.07378 26.6064 7.75909C26.6064 8.44441 26.8382 9.01887 27.3018 9.48246C27.7654 9.94606 28.3398 10.1779 29.0251 10.1779ZM36.8257 53.7156C35.9388 53.7156 35.062 53.5946 34.1953 53.3528C33.3285 53.1109 32.492 52.7279 31.6858 52.2038C32.1292 51.6395 32.5727 50.9743 33.0161 50.2084C33.4595 49.4424 33.8627 48.737 34.2255 48.092C34.6689 48.3741 35.1124 48.5757 35.5558 48.6966C35.9992 48.8176 36.4427 48.8781 36.8861 48.8781C38.1761 48.8781 39.2545 48.4245 40.1212 47.5175C40.9879 46.6105 41.4213 45.5321 41.4213 44.2824C41.4213 43.5165 41.2601 42.6901 40.9376 41.8032C40.6151 40.9163 40.2321 39.8279 39.7886 38.5378L40.9376 36.6028C42.6307 36.2803 44.3944 35.8571 46.2286 35.333C48.0628 34.8089 48.9799 33.4181 48.9799 31.1606C48.9799 29.5481 48.3853 28.379 47.1961 27.6534C46.0069 26.9278 44.7068 26.565 43.2958 26.565C41.6027 26.565 39.6274 26.8875 37.3699 27.5325C35.1124 28.1775 32.4719 29.0039 29.4484 30.0117L28.1786 25.2951C31.323 24.2873 34.1247 23.4407 36.5838 22.7554C39.0429 22.0701 41.3004 21.7274 43.3563 21.7274C46.1379 21.7274 48.5768 22.5539 50.6731 24.2067C52.7693 25.8595 53.8175 28.1775 53.8175 31.1606C53.8175 32.1684 53.6663 33.1259 53.3639 34.0329C53.0616 34.9399 52.6282 35.7966 52.0639 36.6028C53.7973 36.8044 55.2284 37.6006 56.3572 38.9914C57.4859 40.3821 58.0503 41.9443 58.0503 43.6777C58.0503 45.6933 57.3549 47.4066 55.9641 48.8176C54.5733 50.2285 52.85 50.934 50.794 50.934C49.7459 50.934 48.728 50.7022 47.7403 50.2386C46.7527 49.775 45.9363 49.1199 45.2913 48.2734C44.4851 49.9665 43.3462 51.2968 41.8748 52.2643C40.4034 53.2318 38.7204 53.7156 36.8257 53.7156ZM50.8545 46.0965C51.5398 46.0965 52.1042 45.8647 52.5476 45.4011C52.9911 44.9375 53.2128 44.363 53.2128 43.6777C53.2128 42.9924 52.981 42.4079 52.5174 41.9241C52.0538 41.4404 51.4793 41.1985 50.794 41.1985C50.1087 41.1985 49.5342 41.4303 49.0706 41.8939C48.607 42.3575 48.3752 42.9319 48.3752 43.6172C48.3752 44.3026 48.6171 44.8871 49.1009 45.3708C49.5846 45.8546 50.1692 46.0965 50.8545 46.0965Z" fill="#EDA732"/>
</svg>
