<svg width="54" height="49" viewBox="0 0 54 49" fill="none" xmlns="http://www.w3.org/2000/svg">
<path d="M26.7228 43.8501C26.884 43.8501 27.0453 43.8098 27.2065 43.7292C27.3678 43.6485 27.4887 43.5679 27.5693 43.4873L47.4032 23.6534C47.8869 23.1697 48.2397 22.6255 48.4614 22.0208C48.6831 21.4161 48.794 20.8114 48.794 20.2067C48.794 19.5617 48.6831 18.9469 48.4614 18.3624C48.2397 17.7779 47.8869 17.2639 47.4032 16.8204L37.1235 6.54069C36.68 6.05694 36.166 5.7042 35.5815 5.48248C34.997 5.26076 34.3822 5.1499 33.7372 5.1499C33.1325 5.1499 32.5278 5.26076 31.9231 5.48248C31.3184 5.7042 30.7742 6.05694 30.2904 6.54069L29.6253 7.20585L34.1 11.741C34.7047 12.3054 35.1481 12.9504 35.4303 13.676C35.7125 14.4017 35.8536 15.1676 35.8536 15.9739C35.8536 17.667 35.2791 19.088 34.1302 20.2369C32.9813 21.3858 31.5603 21.9603 29.8672 21.9603C29.0609 21.9603 28.2849 21.8192 27.5391 21.537C26.7933 21.2548 26.1382 20.8315 25.5739 20.2672L21.0387 15.7925L10.4566 26.3745C10.3357 26.4955 10.245 26.6265 10.1845 26.7676C10.124 26.9087 10.0938 27.0599 10.0938 27.2211C10.0938 27.5436 10.2147 27.8359 10.4566 28.0979C10.6985 28.3599 10.9807 28.491 11.3032 28.491C11.4644 28.491 11.6257 28.4506 11.7869 28.37C11.9482 28.2894 12.0691 28.2088 12.1497 28.1281L20.3735 19.9044L23.7598 23.2906L15.5965 31.5144C15.4755 31.6353 15.3848 31.7664 15.3244 31.9075C15.2639 32.0486 15.2337 32.1997 15.2337 32.361C15.2337 32.6835 15.3546 32.9657 15.5965 33.2075C15.8383 33.4494 16.1205 33.5704 16.443 33.5704C16.6043 33.5704 16.7655 33.53 16.9268 33.4494C17.088 33.3688 17.209 33.2882 17.2896 33.2075L25.5134 25.0442L28.8997 28.4305L20.7363 36.6543C20.6154 36.7349 20.5247 36.8558 20.4642 37.0171C20.4038 37.1783 20.3735 37.3396 20.3735 37.5008C20.3735 37.8233 20.4945 38.1055 20.7363 38.3474C20.9782 38.5893 21.2604 38.7102 21.5829 38.7102C21.7442 38.7102 21.8953 38.68 22.0364 38.6195C22.1775 38.5591 22.3085 38.4684 22.4295 38.3474L30.6533 30.1841L34.0395 33.5704L25.8157 41.7941C25.6948 41.9151 25.6041 42.0461 25.5436 42.1872C25.4832 42.3283 25.4529 42.4795 25.4529 42.6407C25.4529 42.9632 25.5839 43.2454 25.846 43.4873C26.108 43.7292 26.4003 43.8501 26.7228 43.8501ZM26.6623 48.6876C25.1707 48.6876 23.8505 48.1938 22.7016 47.2061C21.5527 46.2185 20.8774 44.9789 20.6759 43.4873C19.3052 43.2857 18.1563 42.7213 17.2291 41.7941C16.3019 40.867 15.7376 39.718 15.536 38.3474C14.1654 38.1459 13.0265 37.5714 12.1195 36.624C11.2125 35.6767 10.6582 34.5379 10.4566 33.2075C8.92471 33.006 7.67502 32.3408 6.70752 31.2121C5.74001 30.0833 5.25626 28.753 5.25626 27.2211C5.25626 26.4149 5.40743 25.6388 5.70978 24.893C6.01212 24.1473 6.44548 23.4922 7.00986 22.9278L21.0387 8.95945L28.9601 16.8809C29.0408 17.0018 29.1617 17.0925 29.3229 17.153C29.4842 17.2135 29.6454 17.2437 29.8067 17.2437C30.1695 17.2437 30.4719 17.1329 30.7137 16.9111C30.9556 16.6894 31.0765 16.3971 31.0765 16.0343C31.0765 15.8731 31.0463 15.7118 30.9858 15.5506C30.9254 15.3893 30.8347 15.2684 30.7137 15.1878L22.0667 6.54069C21.6232 6.05694 21.1092 5.7042 20.5247 5.48248C19.9402 5.26076 19.3254 5.1499 18.6804 5.1499C18.0757 5.1499 17.471 5.26076 16.8663 5.48248C16.2616 5.7042 15.7174 6.05694 15.2337 6.54069L6.70752 15.1273C6.3447 15.4901 6.04236 15.9134 5.80048 16.3971C5.5586 16.8809 5.39735 17.3647 5.31673 17.8484C5.2361 18.3322 5.2361 18.826 5.31673 19.3299C5.39735 19.8338 5.5586 20.3075 5.80048 20.7509L2.29327 24.2581C1.60796 23.3309 1.10405 22.313 0.781549 21.2044C0.459047 20.0958 0.338109 18.9772 0.418734 17.8484C0.49936 16.7196 0.781548 15.6211 1.2653 14.5528C1.74905 13.4846 2.41421 12.5271 3.26078 11.6806L11.7869 3.15442C12.7544 2.22723 13.8328 1.52176 15.022 1.03801C16.2112 0.554254 17.4307 0.312378 18.6804 0.312378C19.9301 0.312378 21.1495 0.554254 22.3388 1.03801C23.528 1.52176 24.5862 2.22723 25.5134 3.15442L26.1786 3.81958L26.8437 3.15442C27.8112 2.22723 28.8896 1.52176 30.0788 1.03801C31.268 0.554254 32.4875 0.312378 33.7372 0.312378C34.9869 0.312378 36.2063 0.554254 37.3956 1.03801C38.5848 1.52176 39.643 2.22723 40.5702 3.15442L50.7895 13.3737C51.7167 14.3009 52.4221 15.3692 52.9059 16.5786C53.3896 17.7879 53.6315 19.0175 53.6315 20.2672C53.6315 21.5169 53.3896 22.7363 52.9059 23.9255C52.4221 25.1148 51.7167 26.173 50.7895 27.1002L30.9556 46.8736C30.3912 47.4379 29.7361 47.8814 28.9904 48.2039C28.2446 48.5264 27.4686 48.6876 26.6623 48.6876Z" fill="#EDA732"/>
</svg>
