<svg width="36" height="49" viewBox="0 0 36 49" fill="none" xmlns="http://www.w3.org/2000/svg">
<path d="M18.0252 48.6876C16.977 48.6876 16.0297 48.4357 15.1831 47.9318C14.3365 47.4278 13.6714 46.7526 13.1876 45.906C11.8573 45.906 10.7185 45.4324 9.77114 44.485C8.82379 43.5377 8.35011 42.3988 8.35011 41.0685V32.4819C5.97166 30.9097 4.06689 28.8336 2.63579 26.2536C1.20469 23.6736 0.489136 20.8719 0.489136 17.8484C0.489136 12.9706 2.19235 8.82844 5.59877 5.42201C9.00519 2.01559 13.1473 0.312378 18.0252 0.312378C22.903 0.312378 27.0451 2.01559 30.4516 5.42201C33.858 8.82844 35.5612 12.9706 35.5612 17.8484C35.5612 20.9525 34.8456 23.7744 33.4145 26.3141C31.9834 28.8538 30.0787 30.9097 27.7002 32.4819V41.0685C27.7002 42.3988 27.2265 43.5377 26.2792 44.485C25.3318 45.4324 24.193 45.906 22.8627 45.906C22.3789 46.7526 21.7138 47.4278 20.8672 47.9318C20.0206 48.4357 19.0733 48.6876 18.0252 48.6876ZM13.1876 41.0685H22.8627V38.8916H13.1876V41.0685ZM13.1876 36.4729H22.8627V34.175H13.1876V36.4729ZM12.7039 29.3375H16.2111V22.8069L10.8898 17.4856L13.4295 14.9459L18.0252 19.5415L22.6208 14.9459L25.1605 17.4856L19.8392 22.8069V29.3375H23.3464C25.5233 28.2894 27.2971 26.7474 28.6677 24.7116C30.0383 22.6759 30.7237 20.3881 30.7237 17.8484C30.7237 14.3009 29.4941 11.2976 27.0351 8.83852C24.576 6.37944 21.5727 5.1499 18.0252 5.1499C14.4776 5.1499 11.4743 6.37944 9.01527 8.83852C6.5562 11.2976 5.32666 14.3009 5.32666 17.8484C5.32666 20.3881 6.01198 22.6759 7.38261 24.7116C8.75324 26.7474 10.527 28.2894 12.7039 29.3375Z" fill="#EDA732"/>
</svg>
