<svg width="52" height="51" viewBox="0 0 52 51" fill="none" xmlns="http://www.w3.org/2000/svg">
<path d="M43.976 48.6992V7.45627C43.976 4.60904 41.6679 2.3009 38.8206 2.3009H13.0438C10.1966 2.3009 7.88846 4.60904 7.88846 7.45627V48.6992M43.976 48.6992L49.1314 48.6991M43.976 48.6992H31.0876M7.88846 48.6992L2.73309 48.6991M7.88846 48.6992H20.7769M18.1992 12.6116H20.7769M18.1992 22.9223H20.7769M31.0876 12.6116H33.6653M31.0876 22.9223H33.6653M20.7769 48.6992V35.8107C20.7769 34.3871 21.9309 33.233 23.3546 33.233H28.5099C29.9335 33.233 31.0876 34.3871 31.0876 35.8107V48.6992M20.7769 48.6992H31.0876" stroke="#EDA732" stroke-width="4.17063" stroke-linecap="round" stroke-linejoin="round"/>
</svg>
