<svg width="241" height="81" viewBox="0 0 241 81" fill="none" xmlns="http://www.w3.org/2000/svg">
<g clip-path="url(#clip0_247_1270)">
<path d="M79.07 13.32H87.64V17.88H87.78C92.41 11.98 98.59 11.98 100.42 11.98C113.2 11.98 119.94 23 119.94 32.62C119.94 44.13 111.44 53.54 100.42 53.54C93.82 53.54 90.87 50.87 88.41 48.56V65.27H79.07V13.32ZM99.22 44.98C104.2 44.98 110.59 40.77 110.59 32.76C110.59 25.6 105.11 20.54 99.36 20.54C93.61 20.54 87.85 25.24 87.85 32.76C87.85 41.4 94.8 44.98 99.22 44.98Z" fill="#004B64"/>
<path d="M123.82 1.6H132.92V52.23H123.82V1.6Z" fill="#004B64"/>
<path d="M136.73 32.83C136.73 21.04 146.34 11.99 157.5 11.99C168.66 11.99 178.13 20.76 178.13 32.69C178.13 45.46 168.3 53.53 157.5 53.53C145.92 53.53 136.73 43.99 136.73 32.83ZM168.81 32.9C168.81 25.81 163.34 20.55 157.51 20.55C152.67 20.55 146.07 24.69 146.07 32.83C146.07 40.2 151.61 44.97 157.51 44.97C164.32 44.97 168.81 39.08 168.81 32.9Z" fill="#004B64"/>
<path d="M214.99 48.61L200.73 13.28H211.4L220.25 38.28L229.66 13.28H240.26L217.86 65.25H207.82L214.98 48.61H214.99Z" fill="#004B64"/>
<path d="M63.1 32.08L75.22 13.12H64.72L57.6 24.89L50.41 13.12H49.59V28.25L52.03 32.08L38.15 52.23H49.29L57.6 38.84L64.1 52.23H75.24L63.1 32.08Z" fill="#004B64"/>
<path d="M197.21 9.06L195.28 0H194.65C191.81 0 188.77 1.11 186.63 3.11C182.76 6.57 182.34 10.72 182.13 13.28H179.35V21.44H182.13V52.22H191.33V21.44H196.73V13.28H191.33C191.61 8.65 193.68 9.13 197.21 9.06Z" fill="#004B64"/>
<path d="M16.5 52.94C13.75 52.38 11.21 51.27 8.98 49.74C8.74 49.57 8.5 49.4 8.27 49.23C6.7 48.05 5.31 46.66 4.14 45.09C3.96 44.86 3.79 44.62 3.63 44.38C2.09 42.14 0.980002 39.58 0.420002 36.82C0.150002 35.48 0.0100021 34.1 0.0100021 32.69C0.0100021 31.28 0.150002 29.89 0.420002 28.55C1.04 25.5 2.34 22.69 4.14 20.28C5.32 18.71 6.71 17.32 8.27 16.15C10.68 14.35 13.49 13.05 16.54 12.43C17.88 12.16 19.26 12.02 20.67 12.02C22.08 12.02 23.47 12.16 24.81 12.43C27.57 12.99 30.13 14.1 32.37 15.64C32.61 15.81 32.85 15.98 33.08 16.15C34.65 17.33 36.04 18.72 37.21 20.28C37.39 20.51 37.56 20.75 37.72 20.99L33.08 25.63L31.7 27.01L30.16 28.55L24.8 33.91L21.89 36.82L17.67 30.32L19.44 28.55L24.8 23.19L26.34 21.65C25.85 21.39 25.33 21.17 24.8 20.98C23.51 20.52 22.11 20.27 20.66 20.27C19.21 20.27 17.82 20.52 16.53 20.98C13 22.22 10.21 25.02 8.97 28.54C8.51 29.83 8.26 31.23 8.26 32.68C8.26 34.13 8.51 35.52 8.97 36.81C9.15 37.34 9.37 37.86 9.63 38.35C10.81 40.65 12.69 42.53 14.99 43.71C15.49 43.97 16 44.19 16.53 44.37C17.82 44.83 19.21 45.08 20.66 45.08C22.11 45.08 23.5 44.83 24.8 44.37C24.94 44.33 25.07 44.27 25.2 44.22C28.4 42.96 30.95 40.41 32.21 37.21L32.61 36.81L40.88 28.54H40.92C41.19 29.88 41.33 31.26 41.33 32.68C41.33 34.1 41.19 35.48 40.92 36.81C40.3 39.86 39 42.67 37.2 45.08C36.02 46.65 34.63 48.04 33.07 49.22C30.66 51.02 27.85 52.32 24.8 52.94C23.46 53.21 22.08 53.35 20.66 53.35C19.24 53.35 17.86 53.21 16.53 52.94H16.49H16.5Z" fill="#004B64"/>
<path d="M45.55 7.77V22.27L45.36 22.09L40.65 17.38L38.29 15.03L31.03 7.77H45.55Z" fill="#EDA732"/>
<path d="M25.43 77.86C24.66 79.67 22.77 80.8 20.88 80.8C18.03 80.8 15.75 78.42 15.75 75.64C15.75 72.86 18 70.56 20.84 70.56C22.48 70.56 24.54 71.41 25.48 73.57H23.41C22.71 72.76 21.87 72.27 20.78 72.27C19.18 72.27 17.57 73.71 17.57 75.67C17.57 77.52 19.1 79.1 20.84 79.1C22.16 79.1 22.88 78.33 23.31 77.86H25.42H25.43Z" fill="#004B64"/>
<path d="M35.47 70.76H36.89L41.01 80.6H39L37.95 78.06H34.43L33.38 80.6H31.37L35.47 70.76ZM35.05 76.35H37.31L36.19 73.33H36.16L35.04 76.35H35.05Z" fill="#004B64"/>
<path d="M47.67 72.46H45.85V70.76H51.33V72.46H49.49V80.6H47.67V72.46Z" fill="#004B64"/>
<path d="M60.23 70.76H61.65L65.77 80.6H63.76L62.71 78.06H59.19L58.14 80.6H56.13L60.23 70.76ZM59.8 76.35H62.06L60.94 73.33H60.91L59.79 76.35H59.8Z" fill="#004B64"/>
<path d="M72.45 70.76H74.27V78.9H77.28V80.6H72.45V70.76Z" fill="#004B64"/>
<path d="M87.15 70.76H88.57L92.69 80.6H90.68L89.63 78.06H86.11L85.06 80.6H83.05L87.15 70.76ZM86.72 76.35H88.98L87.86 73.33H87.83L86.71 76.35H86.72Z" fill="#004B64"/>
<path d="M99.34 70.76H101.41L105.48 77.91H105.51V70.76H107.33V80.6H105.29L101.18 73.45H101.15V80.6H99.33V70.76H99.34Z" fill="#004B64"/>
<path d="M114.83 70.76H116.65V80.6H114.83V70.76Z" fill="#004B64"/>
<path d="M133.35 70.76H138.36V72.46H135.17V74.87H138.22V76.57H135.17V80.6H133.35V70.76Z" fill="#004B64"/>
<path d="M147.47 70.76H148.89L153.01 80.6H151L149.95 78.06H146.43L145.38 80.6H143.37L147.47 70.76ZM147.04 76.35H149.3L148.18 73.33H148.15L147.03 76.35H147.04Z" fill="#004B64"/>
<path d="M168.87 77.86C168.1 79.67 166.21 80.8 164.32 80.8C161.47 80.8 159.19 78.42 159.19 75.64C159.19 72.86 161.44 70.56 164.28 70.56C165.92 70.56 167.98 71.41 168.92 73.57H166.85C166.15 72.76 165.31 72.27 164.22 72.27C162.62 72.27 161.01 73.71 161.01 75.67C161.01 77.52 162.54 79.1 164.28 79.1C165.6 79.1 166.32 78.33 166.75 77.86H168.86H168.87Z" fill="#004B64"/>
<path d="M176.62 72.46H174.8V70.76H180.28V72.46H178.44V80.6H176.62V72.46Z" fill="#004B64"/>
<path d="M191.51 70.56C194.3 70.56 196.66 72.79 196.66 75.71C196.66 78.63 194.35 80.8 191.51 80.8C188.67 80.8 186.36 78.53 186.36 75.71C186.36 72.89 188.71 70.56 191.51 70.56ZM191.51 79.1C193.39 79.1 194.83 77.52 194.83 75.7C194.83 73.88 193.35 72.27 191.51 72.27C189.67 72.27 188.19 73.81 188.19 75.7C188.19 77.59 189.64 79.1 191.51 79.1Z" fill="#004B64"/>
<path d="M203.56 70.76H206.58C207.71 70.76 208.42 70.97 208.97 71.43C209.52 71.89 210.13 72.68 210.13 73.81C210.13 74.46 209.89 75.49 209.19 76.16C208.6 76.72 208.05 76.85 207.55 76.97L210.22 80.6H208.01L205.4 76.84H205.37V80.6H203.55V70.76H203.56ZM205.38 75.47H206.55C208.05 75.47 208.31 74.47 208.31 73.95C208.31 73.4 207.98 72.46 206.55 72.46H205.38V75.47Z" fill="#004B64"/>
<path d="M218.97 76.97L215.74 70.76H217.73L219.87 75.28L222.02 70.76H224.03L220.79 76.97V80.6H218.97V76.97Z" fill="#004B64"/>
</g>
<defs>
<clipPath id="clip0_247_1270">
<rect width="240.27" height="80.8" fill="white"/>
</clipPath>
</defs>
</svg>
