<svg width="38" height="39" viewBox="0 0 38 39" fill="none" xmlns="http://www.w3.org/2000/svg">
<path fill-rule="evenodd" clip-rule="evenodd" d="M0.370117 19.4001C0.370117 9.01717 8.78719 0.600098 19.1702 0.600098C29.5531 0.600098 37.9702 9.01717 37.9702 19.4001C37.9702 29.7831 29.5531 38.2002 19.1702 38.2002C8.78719 38.2002 0.370117 29.7831 0.370117 19.4001ZM19.1702 10.0001C24.3402 10.0001 28.5702 14.2301 28.5702 19.4001C28.5702 24.1002 25.1627 28.0952 20.4627 28.8002V22.1027H22.6952L23.1652 19.4001H20.5802V17.6376C20.5802 16.9326 20.9327 16.2276 22.1077 16.2276H23.2827V13.8776C23.2827 13.8776 22.2252 13.6426 21.1677 13.6426C19.0527 13.6426 17.6427 14.9351 17.6427 17.2851V19.4001H15.2927V22.1027H17.6427V28.6827C13.1777 27.9777 9.77014 24.1002 9.77014 19.4001C9.77014 14.2301 14.0002 10.0001 19.1702 10.0001Z" fill="#004B64"/>
</svg>
