<svg width="32" height="32" viewBox="0 0 32 32" fill="none" xmlns="http://www.w3.org/2000/svg">
<path d="M22.4465 3.91072H9.41082C8.0279 3.91072 6.70163 4.46008 5.72376 5.43794C4.74589 6.41581 4.19653 7.74209 4.19653 9.125V22.1607C4.19653 23.5436 4.74589 24.8699 5.72376 25.8478C6.70163 26.8256 8.0279 27.375 9.41082 27.375H22.4465C23.8294 27.375 25.1557 26.8256 26.1336 25.8478C27.1115 24.8699 27.6608 23.5436 27.6608 22.1607V9.125C27.6608 7.74209 27.1115 6.41581 26.1336 5.43794C25.1557 4.46008 23.8294 3.91072 22.4465 3.91072Z" stroke="white" stroke-width="1.95536" stroke-linejoin="round"/>
<path d="M15.9286 20.8571C17.3116 20.8571 18.6378 20.3078 19.6157 19.3299C20.5936 18.352 21.1429 17.0258 21.1429 15.6429C21.1429 14.2599 20.5936 12.9337 19.6157 11.9558C18.6378 10.9779 17.3116 10.4286 15.9286 10.4286C14.5457 10.4286 13.2195 10.9779 12.2416 11.9558C11.2637 12.9337 10.7144 14.2599 10.7144 15.6429C10.7144 17.0258 11.2637 18.352 12.2416 19.3299C13.2195 20.3078 14.5457 20.8571 15.9286 20.8571V20.8571Z" stroke="white" stroke-width="1.95536" stroke-linejoin="round"/>
<path d="M23.0982 9.77679C23.444 9.77679 23.7755 9.63945 24.02 9.39498C24.2645 9.15051 24.4018 8.81894 24.4018 8.47321C24.4018 8.12749 24.2645 7.79592 24.02 7.55145C23.7755 7.30698 23.444 7.16964 23.0982 7.16964C22.7525 7.16964 22.421 7.30698 22.1765 7.55145C21.932 7.79592 21.7947 8.12749 21.7947 8.47321C21.7947 8.81894 21.932 9.15051 22.1765 9.39498C22.421 9.63945 22.7525 9.77679 23.0982 9.77679Z" fill="white"/>
</svg>
