<svg width="39" height="39" viewBox="0 0 39 39" fill="none" xmlns="http://www.w3.org/2000/svg">
<path fill-rule="evenodd" clip-rule="evenodd" d="M0.77002 19.4001C0.77002 9.01717 9.18709 0.600098 19.5701 0.600098C29.953 0.600098 38.3701 9.01717 38.3701 19.4001C38.3701 29.7831 29.953 38.2002 19.5701 38.2002C9.18709 38.2002 0.77002 29.7831 0.77002 19.4001ZM10.405 16.2276V28.8002H14.4001V16.2276H10.405ZM10.17 12.2326C10.17 13.5251 11.1101 14.4651 12.4026 14.4651C13.6951 14.4651 14.6351 13.5251 14.6351 12.2326C14.6351 10.9401 13.6951 10.0001 12.4026 10.0001C11.2275 10.0001 10.17 10.9401 10.17 12.2326ZM24.9751 28.8002H28.7351V21.0452C28.7351 17.1676 26.3851 15.8751 24.1526 15.8751C22.1551 15.8751 20.7451 17.1676 20.3926 17.9901V16.2276H16.6326V28.8002H20.6276V22.1027C20.6276 20.3402 21.8026 19.4001 22.9776 19.4001C24.1526 19.4001 24.9751 19.9876 24.9751 21.9851V28.8002Z" fill="#004B64"/>
</svg>
