<svg width="33" height="32" viewBox="0 0 33 32" fill="none" xmlns="http://www.w3.org/2000/svg">
<path d="M15.8483 11.7973C17.0437 10.5759 18.6001 9.77679 20.4108 9.77679C22.3123 9.77679 24.1359 10.5322 25.4805 11.8767C26.8251 13.2213 27.5804 15.0449 27.5804 16.9464V26.7232H24.9733V16.9464C24.9733 15.7364 24.4926 14.5759 23.637 13.7203C22.7813 12.8646 21.6209 12.3839 20.4108 12.3839C19.2008 12.3839 18.0403 12.8646 17.1846 13.7203C16.329 14.5759 15.8483 15.7364 15.8483 16.9464V26.7232H13.2412V10.4286H15.8483V11.7973ZM6.7233 7.82143C6.20471 7.82143 5.70736 7.61542 5.34066 7.24872C4.97395 6.88202 4.76794 6.38467 4.76794 5.86607C4.76794 5.34748 4.97395 4.85013 5.34066 4.48343C5.70736 4.11673 6.20471 3.91072 6.7233 3.91072C7.24189 3.91072 7.73925 4.11673 8.10595 4.48343C8.47265 4.85013 8.67866 5.34748 8.67866 5.86607C8.67866 6.38467 8.47265 6.88202 8.10595 7.24872C7.73925 7.61542 7.24189 7.82143 6.7233 7.82143ZM5.41973 10.4286H8.02687V26.7232H5.41973V10.4286Z" fill="white"/>
</svg>
