<svg width="16" height="17" viewBox="0 0 16 17" fill="none" xmlns="http://www.w3.org/2000/svg">
<mask id="mask0_773_2025" style="mask-type:alpha" maskUnits="userSpaceOnUse" x="0" y="0" width="16" height="17">
<rect x="0.0755196" y="0.830078" width="15.8491" height="15.8491" fill="#D9D9D9"/>
</mask>
<g mask="url(#mask0_773_2025)">
<path d="M8.00006 8.7549C8.36326 8.7549 8.67419 8.62557 8.93284 8.36692C9.19149 8.10828 9.32081 7.79735 9.32081 7.43414C9.32081 7.07093 9.19149 6.76001 8.93284 6.50136C8.67419 6.24271 8.36326 6.11339 8.00006 6.11339C7.63685 6.11339 7.32592 6.24271 7.06727 6.50136C6.80863 6.76001 6.6793 7.07093 6.6793 7.43414C6.6793 7.79735 6.80863 8.10828 7.06727 8.36692C7.32592 8.62557 7.63685 8.7549 8.00006 8.7549ZM8.00006 13.6087C9.34282 12.376 10.3389 11.2561 10.9883 10.249C11.6376 9.24192 11.9623 8.34766 11.9623 7.56622C11.9623 6.36653 11.5799 5.38422 10.8149 4.61928C10.05 3.85435 9.11169 3.47188 8.00006 3.47188C6.88842 3.47188 5.95013 3.85435 5.1852 4.61928C4.42026 5.38422 4.03779 6.36653 4.03779 7.56622C4.03779 8.34766 4.36248 9.24192 5.01185 10.249C5.66122 11.2561 6.65729 12.376 8.00006 13.6087ZM8.00006 15.3587C6.22804 13.8508 4.90454 12.4503 4.02954 11.157C3.15454 9.86378 2.71704 8.66685 2.71704 7.56622C2.71704 5.91527 3.24809 4.60002 4.3102 3.62046C5.3723 2.6409 6.60226 2.15112 8.00006 2.15112C9.39785 2.15112 10.6278 2.6409 11.6899 3.62046C12.752 4.60002 13.2831 5.91527 13.2831 7.56622C13.2831 8.66685 12.8456 9.86378 11.9706 11.157C11.0956 12.4503 9.77207 13.8508 8.00006 15.3587Z" fill="#004B64"/>
</g>
</svg>
