<svg width="60" height="36" viewBox="0 0 60 36" fill="none" xmlns="http://www.w3.org/2000/svg">
<path d="M6.92958 35.9356C5.09256 35.9356 3.52753 35.2888 2.23447 33.9952C0.94093 32.7017 0.294159 31.1367 0.294159 29.3001V6.69889C0.294159 4.86237 0.94093 3.29733 2.23447 2.00379C3.52753 0.710246 5.09256 0.0634766 6.92958 0.0634766H53.0727C54.9097 0.0634766 56.4748 0.710246 57.7678 2.00379C59.0613 3.29733 59.7081 4.86237 59.7081 6.69889V29.3001C59.7081 31.1367 59.0613 32.7017 57.7678 33.9952C56.4748 35.2888 54.9097 35.9356 53.0727 35.9356H6.92958ZM6.92958 29.3001H53.0727V6.69889H44.5845V15.0829C44.5845 15.9092 44.305 16.6019 43.7459 17.161C43.1869 17.72 42.4942 17.9995 41.6678 17.9995C40.8414 17.9995 40.1487 17.72 39.5897 17.161C39.0307 16.6019 38.7511 15.9092 38.7511 15.0829V6.69889H32.9178V15.0829C32.9178 15.9092 32.6383 16.6019 32.0793 17.161C31.5202 17.72 30.8275 17.9995 30.0011 17.9995C29.1748 17.9995 28.482 17.72 27.923 17.161C27.364 16.6019 27.0845 15.9092 27.0845 15.0829V6.69889H21.2511V15.0829C21.2511 15.9092 20.9716 16.6019 20.4126 17.161C19.8536 17.72 19.1609 17.9995 18.3345 17.9995C17.5081 17.9995 16.8154 17.72 16.2563 17.161C15.6973 16.6019 15.4178 15.9092 15.4178 15.0829V6.69889H6.92958V29.3001Z" fill="#EDA732"/>
</svg>
