<svg width="40" height="39" viewBox="0 0 40 39" fill="none" xmlns="http://www.w3.org/2000/svg">
<path d="M0.970215 19.1001C0.970215 29.6488 9.52162 38.2002 20.0703 38.2002C30.619 38.2002 39.1704 29.6488 39.1704 19.1001C39.1704 8.55141 30.619 0 20.0703 0C9.52162 0 0.970215 8.55141 0.970215 19.1001Z" fill="#004B64"/>
<path fill-rule="evenodd" clip-rule="evenodd" d="M26.7554 12.2954C24.9647 10.5048 22.5772 9.5498 20.0703 9.5498C14.8178 9.5498 10.5203 13.8473 10.5203 19.0999C10.5203 20.7711 10.9978 22.4424 11.8334 23.8749L10.5203 28.6499L15.5341 27.3368C16.9666 28.053 18.5184 28.5305 20.0703 28.5305C25.3228 28.5305 29.6204 24.233 29.6204 18.9805C29.6204 16.4736 28.546 14.0861 26.7554 12.2954ZM20.0703 26.9786C18.6378 26.9786 17.2053 26.6205 16.0115 25.9043L15.7728 25.7849L12.7884 26.6205L13.624 23.7555L13.3853 23.3974C12.5496 22.0842 12.1915 20.6517 12.1915 19.2192C12.1915 14.9217 15.7728 11.3404 20.0703 11.3404C22.2191 11.3404 24.1291 12.1761 25.681 13.6086C27.2329 15.1605 27.9491 17.0705 27.9491 19.2192C27.9491 23.3974 24.4872 26.9786 20.0703 26.9786ZM24.3678 21.0099C24.1291 20.8905 22.9353 20.2936 22.6966 20.2936C22.4578 20.1742 22.3384 20.1742 22.2191 20.413C22.0997 20.6517 21.6222 21.1292 21.5028 21.368C21.3835 21.4874 21.2641 21.4874 21.0253 21.4874C20.7866 21.368 20.0703 21.1292 19.1153 20.2936C18.3991 19.6967 17.9216 18.8611 17.8022 18.6224C17.6828 18.3836 17.8022 18.2642 17.9216 18.1448C18.0409 18.0255 18.1603 17.9061 18.2797 17.7867C18.3991 17.6673 18.3991 17.548 18.5184 17.4286C18.6378 17.3092 18.5184 17.1898 18.5184 17.0705C18.5184 16.9511 18.0409 15.7573 17.8022 15.2798C17.6828 14.9217 17.4441 14.9217 17.3247 14.9217C17.2053 14.9217 17.0859 14.9217 16.8472 14.9217C16.7278 14.9217 16.489 14.9217 16.2503 15.1605C16.0115 15.3992 15.4147 15.9961 15.4147 17.1898C15.4147 18.3836 16.2503 19.458 16.3697 19.6967C16.489 19.8161 18.0409 22.323 20.4284 23.278C22.4578 24.1136 22.816 23.8749 23.2935 23.8749C23.771 23.8749 24.726 23.278 24.8453 22.8005C25.0841 22.2036 25.0841 21.7261 24.9647 21.7261C24.8453 21.1292 24.6066 21.1292 24.3678 21.0099Z" fill="#D0DBE0"/>
</svg>
