<svg width="24" height="25" viewBox="0 0 24 25" fill="none" xmlns="http://www.w3.org/2000/svg">
<g clip-path="url(#clip0_247_1299)">
<path d="M0.00012207 24.6429L1.6964 18.4832C0.647686 16.6752 0.0975432 14.6277 0.103274 12.5345C0.103274 5.97556 5.46717 0.642857 12.0517 0.642857C15.2494 0.642857 18.2523 1.8805 20.5044 4.12765C22.7623 6.3748 24.0058 9.36339 24.0001 12.5402C24.0001 19.0991 18.6362 24.4318 12.046 24.4318H12.0402C10.0402 24.4318 8.07461 23.9299 6.32677 22.9832L0.00012207 24.6429ZM6.63049 20.833L6.99152 21.0497C8.51587 21.9508 10.2637 22.4242 12.046 22.4299H12.0517C17.5245 22.4299 21.9829 17.9984 21.9829 12.5459C21.9829 9.90522 20.9514 7.42423 19.0775 5.5535C17.2035 3.68278 14.705 2.65616 12.0517 2.65616C6.57891 2.65046 2.12046 7.08202 2.12046 12.5345C2.12046 14.3995 2.64195 16.2189 3.63909 17.7931L3.87404 18.1695L2.87118 21.814L6.63049 20.833Z" fill="white"/>
<path d="M0.418335 24.2265L2.0573 18.2778C1.04298 16.5383 0.510025 14.5592 0.510025 12.5402C0.515756 6.20939 5.69054 1.0592 12.0516 1.0592C15.1404 1.0592 18.0344 2.25692 20.212 4.42422C22.3897 6.59152 23.5874 9.47746 23.5874 12.5459C23.5874 18.8767 18.4069 24.0269 12.0516 24.0269H12.0458C10.1146 24.0269 8.21776 23.5421 6.53294 22.6296L0.418335 24.2265Z" fill="#004B64"/>
<path d="M0.00012207 24.6429L1.6964 18.4832C0.647686 16.6752 0.0975432 14.6277 0.103274 12.5345C0.103274 5.97556 5.46717 0.642857 12.0517 0.642857C15.2494 0.642857 18.2523 1.8805 20.5044 4.12765C22.7623 6.3748 24.0058 9.36339 24.0001 12.5402C24.0001 19.0991 18.6362 24.4318 12.046 24.4318H12.0402C10.0402 24.4318 8.07461 23.9299 6.32677 22.9832L0.00012207 24.6429ZM6.63049 20.833L6.99152 21.0497C8.51587 21.9508 10.2637 22.4242 12.046 22.4299H12.0517C17.5245 22.4299 21.9829 17.9984 21.9829 12.5459C21.9829 9.90522 20.9514 7.42423 19.0775 5.5535C17.2035 3.68278 14.705 2.65616 12.0517 2.65616C6.57891 2.65046 2.12046 7.08202 2.12046 12.5345C2.12046 14.3995 2.64195 16.2189 3.63909 17.7931L3.87404 18.1695L2.87118 21.814L6.63049 20.833Z" fill="#F9F9F9"/>
<path fill-rule="evenodd" clip-rule="evenodd" d="M9.06588 7.56111C8.84238 7.06491 8.60743 7.05351 8.39539 7.0478C8.22347 7.0421 8.0229 7.0421 7.82233 7.0421C7.62176 7.0421 7.30084 7.11624 7.02577 7.41282C6.7507 7.7094 5.98279 8.42803 5.98279 9.89381C5.98279 11.3539 7.05442 12.7683 7.20342 12.968C7.35241 13.1676 9.27218 16.2645 12.3037 17.4565C14.8252 18.4489 15.3409 18.2493 15.8854 18.198C16.4298 18.1467 17.6504 17.4794 17.9025 16.7835C18.149 16.0877 18.149 15.4946 18.0745 15.3691C18 15.2436 17.7994 15.1695 17.5014 15.0212C17.2034 14.8729 15.7364 14.1543 15.4613 14.0516C15.1862 13.9546 14.9856 13.9033 14.7908 14.1999C14.5902 14.4965 14.0172 15.1638 13.8452 15.3634C13.6733 15.563 13.4957 15.5858 13.1977 15.4375C12.8997 15.2892 11.9369 14.9756 10.7965 13.9604C9.90829 13.1733 9.30657 12.198 9.13465 11.9014C8.96273 11.6048 9.11746 11.4451 9.26645 11.2969C9.39826 11.1657 9.56445 10.9489 9.71344 10.7778C9.86244 10.6067 9.91402 10.4813 10.0114 10.2816C10.1089 10.082 10.063 9.91092 9.98852 9.76263C9.91402 9.62005 9.32949 8.14856 9.06588 7.56111Z" fill="white"/>
</g>
<defs>
<clipPath id="clip0_247_1299">
<rect y="0.642857" width="24" height="24" rx="6" fill="white"/>
</clipPath>
</defs>
</svg>
