<svg width="42" height="31" viewBox="0 0 42 31" fill="none" xmlns="http://www.w3.org/2000/svg">
<path d="M26.8901 30.4626C22.7067 30.4626 19.1634 29.0109 16.2601 26.1076C13.3567 23.2042 11.905 19.6609 11.905 15.4776C11.905 11.3255 13.3567 7.78995 16.2601 4.87099C19.1634 1.95203 22.7067 0.492554 26.8901 0.492554C31.0422 0.492554 34.5777 1.95203 37.4967 4.87099C40.4156 7.78995 41.8751 11.3255 41.8751 15.4776C41.8751 19.6609 40.4156 23.2042 37.4967 26.1076C34.5777 29.0109 31.0422 30.4626 26.8901 30.4626ZM26.8901 26.7164C30.0119 26.7164 32.6655 25.6237 34.8509 23.4384C37.0362 21.2531 38.1288 18.5995 38.1288 15.4776C38.1288 12.3557 37.0362 9.7021 34.8509 7.51679C32.6655 5.33147 30.0119 4.23881 26.8901 4.23881C23.7682 4.23881 21.1146 5.33147 18.9293 7.51679C16.7439 9.7021 15.6513 12.3557 15.6513 15.4776C15.6513 18.5995 16.7439 21.2531 18.9293 23.4384C21.1146 25.6237 23.7682 26.7164 26.8901 26.7164ZM28.7632 14.7283V9.8582C28.7632 9.32748 28.5837 8.88261 28.2247 8.52359C27.8657 8.16458 27.4208 7.98507 26.8901 7.98507C26.3593 7.98507 25.9145 8.16458 25.5555 8.52359C25.1964 8.88261 25.0169 9.32748 25.0169 9.8582V15.5244C25.0169 15.7742 25.0716 16.0161 25.1808 16.2503C25.2901 16.4844 25.4228 16.6795 25.5789 16.8356L29.8402 21.097C30.2149 21.4716 30.6597 21.6589 31.1748 21.6589C31.69 21.6589 32.1348 21.4716 32.5095 21.097C32.8841 20.7223 33.0714 20.2775 33.0714 19.7624C33.0714 19.2473 32.8841 18.8024 32.5095 18.4278L28.7632 14.7283ZM4.41252 9.8582C3.8818 9.8582 3.43693 9.67869 3.07791 9.31967C2.7189 8.96066 2.53939 8.51579 2.53939 7.98507C2.53939 7.45435 2.7189 7.00948 3.07791 6.65047C3.43693 6.29145 3.8818 6.11194 4.41252 6.11194H8.15878C8.6895 6.11194 9.13436 6.29145 9.49338 6.65047C9.8524 7.00948 10.0319 7.45435 10.0319 7.98507C10.0319 8.51579 9.8524 8.96066 9.49338 9.31967C9.13436 9.67869 8.6895 9.8582 8.15878 9.8582H4.41252ZM2.53939 17.3507C2.00867 17.3507 1.5638 17.1712 1.20478 16.8122C0.845768 16.4532 0.66626 16.0083 0.66626 15.4776C0.66626 14.9469 0.845768 14.502 1.20478 14.143C1.5638 13.784 2.00867 13.6045 2.53939 13.6045H8.15878C8.6895 13.6045 9.13436 13.784 9.49338 14.143C9.8524 14.502 10.0319 14.9469 10.0319 15.4776C10.0319 16.0083 9.8524 16.4532 9.49338 16.8122C9.13436 17.1712 8.6895 17.3507 8.15878 17.3507H2.53939ZM4.41252 24.8432C3.8818 24.8432 3.43693 24.6637 3.07791 24.3047C2.7189 23.9457 2.53939 23.5008 2.53939 22.9701C2.53939 22.4394 2.7189 21.9945 3.07791 21.6355C3.43693 21.2765 3.8818 21.097 4.41252 21.097H8.15878C8.6895 21.097 9.13436 21.2765 9.49338 21.6355C9.8524 21.9945 10.0319 22.4394 10.0319 22.9701C10.0319 23.5008 9.8524 23.9457 9.49338 24.3047C9.13436 24.6637 8.6895 24.8432 8.15878 24.8432H4.41252Z" fill="#1C1B1F"/>
</svg>
