<svg width="41" height="41" viewBox="0 0 41 41" fill="none" xmlns="http://www.w3.org/2000/svg">
<path d="M20.6036 25.1135L24.1626 27.2676C24.506 27.4862 24.8494 27.4784 25.1928 27.2442C25.5362 27.0101 25.6611 26.6901 25.5674 26.2842L24.6309 22.2102L27.8152 19.4473C28.1274 19.1664 28.221 18.8308 28.0962 18.4405C27.9713 18.0503 27.6903 17.8396 27.2533 17.8083L23.0855 17.4805L21.4466 13.6406C21.2905 13.266 21.0095 13.0787 20.6036 13.0787C20.1978 13.0787 19.9168 13.266 19.7607 13.6406L18.1218 17.4805L13.954 17.8083C13.517 17.8396 13.236 18.0503 13.1111 18.4405C12.9863 18.8308 13.0799 19.1664 13.3921 19.4473L16.5764 22.2102L15.6399 26.2842C15.5462 26.6901 15.6711 27.0101 16.0145 27.2442C16.3579 27.4784 16.7013 27.4862 17.0447 27.2676L20.6036 25.1135ZM14.3287 35.4626H9.36487C8.33465 35.4626 7.45272 35.0958 6.71908 34.3621C5.98543 33.6285 5.61861 32.7465 5.61861 31.7163V26.7525L2.01284 23.0999C1.66943 22.7253 1.40407 22.3117 1.21676 21.859C1.02945 21.4063 0.935791 20.9458 0.935791 20.4775C0.935791 20.0093 1.02945 19.5488 1.21676 19.0961C1.40407 18.6434 1.66943 18.2298 2.01284 17.8552L5.61861 14.2026V9.23877C5.61861 8.20855 5.98543 7.32662 6.71908 6.59298C7.45272 5.85934 8.33465 5.49251 9.36487 5.49251H14.3287L17.9813 1.88674C18.3559 1.54333 18.7695 1.27797 19.2222 1.09066C19.6749 0.903349 20.1354 0.809692 20.6036 0.809692C21.0719 0.809692 21.5324 0.903349 21.9851 1.09066C22.4378 1.27797 22.8514 1.54333 23.226 1.88674L26.8786 5.49251H31.8424C32.8726 5.49251 33.7546 5.85934 34.4882 6.59298C35.2219 7.32662 35.5887 8.20855 35.5887 9.23877V14.2026L39.1945 17.8552C39.5379 18.2298 39.8032 18.6434 39.9905 19.0961C40.1778 19.5488 40.2715 20.0093 40.2715 20.4775C40.2715 20.9458 40.1778 21.4063 39.9905 21.859C39.8032 22.3117 39.5379 22.7253 39.1945 23.0999L35.5887 26.7525V31.7163C35.5887 32.7465 35.2219 33.6285 34.4882 34.3621C33.7546 35.0958 32.8726 35.4626 31.8424 35.4626H26.8786L23.226 39.0684C22.8514 39.4118 22.4378 39.6771 21.9851 39.8644C21.5324 40.0517 21.0719 40.1454 20.6036 40.1454C20.1354 40.1454 19.6749 40.0517 19.2222 39.8644C18.7695 39.6771 18.3559 39.4118 17.9813 39.0684L14.3287 35.4626ZM15.9208 31.7163L20.6036 36.3991L25.2865 31.7163H31.8424V25.1604L36.5252 20.4775L31.8424 15.7947V9.23877H25.2865L20.6036 4.55595L15.9208 9.23877H9.36487V15.7947L4.68205 20.4775L9.36487 25.1604V31.7163H15.9208Z" fill="black"/>
</svg>
