<svg width="35" height="36" viewBox="0 0 35 36" fill="none" xmlns="http://www.w3.org/2000/svg">
<path d="M5.04854 35.3357C4.26807 35.3357 3.60467 35.0625 3.05835 34.5162C2.51202 33.9698 2.23885 33.3064 2.23885 32.526C2.23885 31.7455 2.51202 31.0821 3.05835 30.5358C3.60467 29.9894 4.26807 29.7163 5.04854 29.7163H8.04555L3.26907 14.0756C2.42616 13.6074 1.73155 12.9205 1.18522 12.0152C0.638887 11.1099 0.365723 10.1421 0.365723 9.11185C0.365723 7.55091 0.912052 6.22411 2.00471 5.13145C3.09737 4.03879 4.42417 3.49246 5.98511 3.49246C7.20264 3.49246 8.2875 3.84368 9.23967 4.5461C10.1918 5.24852 10.8552 6.14606 11.2299 7.23872H17.2239V5.36559C17.2239 4.83487 17.4034 4.39001 17.7624 4.03099C18.1214 3.67197 18.5663 3.49246 19.097 3.49246C19.378 3.49246 19.6511 3.5549 19.9165 3.67978C20.1819 3.80465 20.4082 3.99197 20.5955 4.24172L23.7798 1.24471C24.0608 0.963741 24.3964 0.784232 24.7866 0.706185C25.1769 0.628138 25.5593 0.682771 25.9339 0.870084L33.2391 4.24172C33.6138 4.42903 33.8713 4.70219 34.0118 5.06121C34.1523 5.42023 34.1445 5.77144 33.9884 6.11485C33.8011 6.48947 33.5279 6.73142 33.1689 6.84068C32.8099 6.94995 32.4587 6.92653 32.1153 6.77044L25.372 3.67978L20.9701 7.80066V10.423L25.372 14.4503L32.1153 11.3596C32.4587 11.2035 32.8177 11.1879 33.1923 11.3128C33.5669 11.4377 33.8323 11.6718 33.9884 12.0152C34.1757 12.3898 34.1913 12.7488 34.0352 13.0922C33.8791 13.4357 33.6138 13.701 33.2391 13.8883L25.9339 17.3536C25.5593 17.5409 25.1769 17.5956 24.7866 17.5175C24.3964 17.4395 24.0608 17.26 23.7798 16.979L20.5955 13.982C20.4082 14.1693 20.1819 14.341 19.9165 14.4971C19.6511 14.6532 19.378 14.7312 19.097 14.7312C18.5663 14.7312 18.1214 14.5517 17.7624 14.1927C17.4034 13.8337 17.2239 13.3888 17.2239 12.8581V10.985H11.2299C11.1362 11.2347 11.0348 11.4689 10.9255 11.6874C10.8162 11.9059 10.6679 12.1401 10.4806 12.3898L19.8463 29.7163H23.7798C24.5603 29.7163 25.2237 29.9894 25.77 30.5358C26.3164 31.0821 26.5895 31.7455 26.5895 32.526C26.5895 33.3064 26.3164 33.9698 25.77 34.5162C25.2237 35.0625 24.5603 35.3357 23.7798 35.3357H5.04854ZM5.98511 10.985C6.51583 10.985 6.9607 10.8055 7.31971 10.4465C7.67873 10.0874 7.85824 9.64257 7.85824 9.11185C7.85824 8.58113 7.67873 8.13626 7.31971 7.77725C6.9607 7.41823 6.51583 7.23872 5.98511 7.23872C5.45439 7.23872 5.00952 7.41823 4.65051 7.77725C4.29149 8.13626 4.11198 8.58113 4.11198 9.11185C4.11198 9.64257 4.29149 10.0874 4.65051 10.4465C5.00952 10.8055 5.45439 10.985 5.98511 10.985ZM11.8855 29.7163H15.5381L7.48361 14.7312H7.2963L11.8855 29.7163Z" fill="#1C1B1F"/>
</svg>
