<svg width="34" height="34" viewBox="0 0 34 34" fill="none" xmlns="http://www.w3.org/2000/svg">
<path d="M12.5879 24.9701C9.18508 24.9701 6.30515 23.7915 3.94813 21.4345C1.59111 19.0775 0.412598 16.1976 0.412598 12.7947C0.412598 9.39187 1.59111 6.51194 3.94813 4.15492C6.30515 1.7979 9.18508 0.619385 12.5879 0.619385C15.9908 0.619385 18.8707 1.7979 21.2277 4.15492C23.5848 6.51194 24.7633 9.39187 24.7633 12.7947C24.7633 14.1684 24.5447 15.4639 24.1077 16.6815C23.6706 17.899 23.0775 18.976 22.3282 19.9126L32.8177 30.4021C33.1611 30.7455 33.3328 31.1826 33.3328 31.7133C33.3328 32.244 33.1611 32.6811 32.8177 33.0245C32.4743 33.3679 32.0373 33.5396 31.5065 33.5396C30.9758 33.5396 30.5388 33.3679 30.1953 33.0245L19.7058 22.535C18.7693 23.2842 17.6922 23.8774 16.4747 24.3145C15.2571 24.7515 13.9616 24.9701 12.5879 24.9701ZM12.5879 21.2238C14.9293 21.2238 16.9195 20.4043 18.5585 18.7653C20.1975 17.1263 21.017 15.1361 21.017 12.7947C21.017 10.4533 20.1975 8.46311 18.5585 6.82412C16.9195 5.18514 14.9293 4.36564 12.5879 4.36564C10.2465 4.36564 8.25632 5.18514 6.61734 6.82412C4.97835 8.46311 4.15886 10.4533 4.15886 12.7947C4.15886 15.1361 4.97835 17.1263 6.61734 18.7653C8.25632 20.4043 10.2465 21.2238 12.5879 21.2238Z" fill="#1C1B1F"/>
</svg>
